<svg id="book" xmlns="http://www.w3.org/2000/svg" width="34" height="34" viewBox="0 0 34 34">
  <g id="Group_8053" data-name="Group 8053">
    <g id="Group_8052" data-name="Group 8052">
      <path id="Path_26412" data-name="Path 26412" d="M147.806,139.435a6.618,6.618,0,0,0,4.842-11.153.5.5,0,0,0-.725.683,5.636,5.636,0,1,1-1.74-1.256.5.5,0,0,0,.419-.9,6.627,6.627,0,1,0-2.8,12.63Z" transform="translate(-131.792 -117.811)" fill="#034173"/>
      <path id="Path_26413" data-name="Path 26413" d="M32.877,8.233,33.9,6.387a.83.83,0,0,0-.728-1.231H29.442V4.373a.5.5,0,0,0-.088-.289l-1.1-1.651.762-1.14A.83.83,0,0,0,28.323,0H1.791A1.791,1.791,0,0,0,0,1.787V32.213A1.791,1.791,0,0,0,1.791,34H27.616a1.828,1.828,0,0,0,1.826-1.826V11.31h3.725a.83.83,0,0,0,.728-1.231ZM2.586,33h-.8A.794.794,0,0,1,1,32.213V4.864h1.59ZM1,3.868V1.787A.794.794,0,0,1,1.791,1H28.012l-.627.938H5.67a.5.5,0,0,0,0,1H27.385l.627.938H1Zm28.446,6.446V8.878a.5.5,0,1,0-1,0v23.3a.831.831,0,0,1-.83.83H3.582V4.864H28.446v2.08a.5.5,0,0,0,1,0V6.153h3.445l-1.015,1.84a.5.5,0,0,0,0,.481l1.015,1.84Z" fill="#034173"/>
      <path id="Path_26414" data-name="Path 26414" d="M132.841,378.574H117.325a.5.5,0,0,0,0,1h15.516a.5.5,0,1,0,0-1Z" transform="translate(-109.069 -353.434)" fill="#034173"/>
      <path id="Path_26415" data-name="Path 26415" d="M172.24,407.7h-9.482a.5.5,0,1,0,0,1h9.482a.5.5,0,1,0,0-1Z" transform="translate(-151.485 -380.621)" fill="#034173"/>
      <path id="Path_26416" data-name="Path 26416" d="M225.71,456.23h-1.293a.5.5,0,0,0,0,1h1.293a.5.5,0,1,0,0-1Z" transform="translate(-209.049 -425.934)" fill="#034173"/>
    </g>
  </g>
</svg>
