<svg xmlns="http://www.w3.org/2000/svg" width="31.336" height="34.879" viewBox="0 0 31.336 34.879">
  <g id="brain" transform="translate(-26 0)">
    <g id="Group_8195" data-name="Group 8195" transform="translate(44.393 5.654)">
      <g id="Group_8194" data-name="Group 8194">
        <path id="Path_27846" data-name="Path 27846" d="M296.681,83a.681.681,0,1,0,.681.681A.681.681,0,0,0,296.681,83Z" transform="translate(-296 -83)" fill="#fff"/>
      </g>
    </g>
    <g id="Group_8197" data-name="Group 8197" transform="translate(37.581 5.654)">
      <g id="Group_8196" data-name="Group 8196" transform="translate(0)">
        <path id="Path_27847" data-name="Path 27847" d="M196.681,83a.681.681,0,1,0,.681.681A.681.681,0,0,0,196.681,83Z" transform="translate(-196 -83)" fill="#fff"/>
      </g>
    </g>
    <g id="Group_8199" data-name="Group 8199" transform="translate(26)">
      <g id="Group_8198" data-name="Group 8198" transform="translate(0)">
        <path id="Path_27848" data-name="Path 27848" d="M56.459,20.36a5.448,5.448,0,0,0,.877-2.921,4.731,4.731,0,0,0-1.726-3.66,4.605,4.605,0,0,0,.363-1.789A5.078,5.078,0,0,0,53.22,7.5a4.083,4.083,0,0,0-3.1-4.455A4.908,4.908,0,0,0,45.755,0a4.787,4.787,0,0,0-4.087,2.453A4.787,4.787,0,0,0,37.581,0a4.907,4.907,0,0,0-4.364,3.044,4.082,4.082,0,0,0-3.1,4.455,5.078,5.078,0,0,0-2.754,4.491,4.605,4.605,0,0,0,.363,1.789A4.732,4.732,0,0,0,26,17.439a5.447,5.447,0,0,0,.877,2.921,4.7,4.7,0,0,0,.546,6.106,4.944,4.944,0,0,0,4.707,5.687h.062a5.37,5.37,0,0,0,9.475-.237,5.37,5.37,0,0,0,9.475.237h.062a4.939,4.939,0,0,0,4.769-4.973,4.361,4.361,0,0,0-.061-.714,4.7,4.7,0,0,0,.546-6.106ZM40.987,10.312a2.707,2.707,0,0,0-1.362-.367.681.681,0,1,0,0,1.362,1.364,1.364,0,0,1,1.362,1.362V25.625A5.437,5.437,0,0,0,36.9,23.775a.681.681,0,0,0,0,1.362,4.092,4.092,0,0,1,4.087,4.087A4.25,4.25,0,0,1,36.9,33.516a4.1,4.1,0,0,1-3.7-2.376.682.682,0,0,0-.695-.39l-.144.018c-1.939.265-4.122-1.93-3.531-4.386A.681.681,0,0,0,28.6,25.7a3.391,3.391,0,0,1-1.242-2.606,3.352,3.352,0,0,1,.5-1.753,4.6,4.6,0,0,0,2.906,1.072.681.681,0,0,0,0-1.362,3.581,3.581,0,0,1-3.406-3.61,3.387,3.387,0,0,1,1.591-2.871.681.681,0,0,0,.228-.911,3.352,3.352,0,0,1-.456-1.667,3.6,3.6,0,0,1,3.406-3.61,3.6,3.6,0,0,1,3.406,3.61.681.681,0,1,0,1.362,0,4.939,4.939,0,0,0-4.769-4.973,4.417,4.417,0,0,0-.68.053c0-.018,0-.035,0-.053A2.725,2.725,0,0,1,36.1,5.09a.681.681,0,1,0,.963-.964,4.06,4.06,0,0,0-2.259-1.148,3.442,3.442,0,0,1,2.775-1.616,3.6,3.6,0,0,1,3.406,3.61Zm11.581,12.1a4.6,4.6,0,0,0,2.906-1.071,3.352,3.352,0,0,1,.5,1.753A3.391,3.391,0,0,1,54.732,25.7a.681.681,0,0,0-.227.683,3.361,3.361,0,0,1,.106.8,3.549,3.549,0,0,1-3.637,3.588l-.144-.018a.681.681,0,0,0-.695.39,4.1,4.1,0,0,1-3.7,2.376,4.25,4.25,0,0,1-4.087-4.292,4.092,4.092,0,0,1,4.087-4.087.681.681,0,0,0,0-1.362,5.437,5.437,0,0,0-4.087,1.851V12.671a1.364,1.364,0,0,1,1.362-1.362.681.681,0,0,0,0-1.362,2.707,2.707,0,0,0-1.362.367V4.973a3.6,3.6,0,0,1,3.406-3.61,3.442,3.442,0,0,1,2.775,1.615,4.06,4.06,0,0,0-2.259,1.148.681.681,0,1,0,.963.964,2.725,2.725,0,0,1,4.652,1.927c0,.018,0,.035,0,.053a4.417,4.417,0,0,0-.68-.053,4.939,4.939,0,0,0-4.769,4.973.681.681,0,1,0,1.362,0,3.412,3.412,0,1,1,6.812,0,3.352,3.352,0,0,1-.456,1.667.681.681,0,0,0,.228.911,3.387,3.387,0,0,1,1.591,2.871,3.58,3.58,0,0,1-3.406,3.61.681.681,0,1,0,0,1.362Z" transform="translate(-26)" fill="#fff"/>
      </g>
    </g>
    <g id="Group_8201" data-name="Group 8201" transform="translate(31.45 11.308)">
      <g id="Group_8200" data-name="Group 8200">
        <path id="Path_27849" data-name="Path 27849" d="M114,169.273a.681.681,0,0,0-.962-.054,3.412,3.412,0,0,1-5.677-2.539.681.681,0,0,0-1.362,0,4.776,4.776,0,0,0,3.992,4.7,2.047,2.047,0,0,1-1.948,1.427.681.681,0,0,0,0,1.362,3.411,3.411,0,0,0,3.345-2.766,4.761,4.761,0,0,0,2.559-1.173A.681.681,0,0,0,114,169.273Z" transform="translate(-106 -166)" fill="#fff"/>
      </g>
    </g>
    <g id="Group_8203" data-name="Group 8203" transform="translate(31.45 26.499)">
      <g id="Group_8202" data-name="Group 8202">
        <path id="Path_27850" data-name="Path 27850" d="M106.681,389a.681.681,0,1,0,0,1.362,3.6,3.6,0,0,1,3.406,3.61.681.681,0,0,0,1.362,0A4.939,4.939,0,0,0,106.681,389Z" transform="translate(-106 -389)" fill="#fff"/>
      </g>
    </g>
    <g id="Group_8205" data-name="Group 8205" transform="translate(32.158 21.05)">
      <g id="Group_8204" data-name="Group 8204">
        <path id="Path_27851" data-name="Path 27851" d="M121.821,309a6.118,6.118,0,0,0-5.334,3.107.681.681,0,1,0,1.185.672,4.758,4.758,0,0,1,4.149-2.416.681.681,0,1,0,0-1.362Z" transform="translate(-116.398 -309)" fill="#fff"/>
      </g>
    </g>
    <g id="Group_8207" data-name="Group 8207" transform="translate(43.712 11.308)">
      <g id="Group_8206" data-name="Group 8206">
        <path id="Path_27852" data-name="Path 27852" d="M292.131,172.812a2.047,2.047,0,0,1-1.948-1.427,4.776,4.776,0,0,0,3.992-4.7.681.681,0,1,0-1.362,0,3.406,3.406,0,0,1-5.677,2.539.681.681,0,0,0-.908,1.015,4.761,4.761,0,0,0,2.559,1.173,3.411,3.411,0,0,0,3.345,2.766.681.681,0,1,0,0-1.362Z" transform="translate(-286 -166)" fill="#fff"/>
      </g>
    </g>
    <g id="Group_8209" data-name="Group 8209" transform="translate(46.437 26.499)">
      <g id="Group_8208" data-name="Group 8208">
        <path id="Path_27853" data-name="Path 27853" d="M330.769,389A4.939,4.939,0,0,0,326,393.973a.681.681,0,0,0,1.362,0,3.6,3.6,0,0,1,3.406-3.61.681.681,0,1,0,0-1.362Z" transform="translate(-326 -389)" fill="#fff"/>
      </g>
    </g>
    <g id="Group_8211" data-name="Group 8211" transform="translate(45.074 21.05)">
      <g id="Group_8210" data-name="Group 8210">
        <path id="Path_27854" data-name="Path 27854" d="M312.015,312.107A6.117,6.117,0,0,0,306.681,309a.681.681,0,0,0,0,1.362,4.759,4.759,0,0,1,4.149,2.416.681.681,0,0,0,1.185-.672Z" transform="translate(-306 -309)" fill="#fff"/>
      </g>
    </g>
  </g>
</svg>
