<svg xmlns="http://www.w3.org/2000/svg" width="37.993" height="29.852" viewBox="0 0 37.993 29.852">
  <g id="envelope" transform="translate(0)">
    <g id="Group_120" data-name="Group 120" transform="translate(0 0)">
      <path id="Path_181" data-name="Path 181" d="M3.647,64.021q.721.509,4.346,3.021t5.555,3.869q.212.149.9.647t1.145.806q.456.307,1.1.689a6.4,6.4,0,0,0,1.219.572,3.36,3.36,0,0,0,1.06.191h.043a3.362,3.362,0,0,0,1.06-.191,6.4,6.4,0,0,0,1.219-.572q.647-.382,1.1-.689t1.145-.806q.689-.5.9-.647,1.95-1.357,9.922-6.891a10.072,10.072,0,0,0,2.586-2.608,5.6,5.6,0,0,0,1.039-3.2A3.421,3.421,0,0,0,34.6,54.82H3.392a3.028,3.028,0,0,0-2.512,1.1A4.28,4.28,0,0,0,0,58.678a4.952,4.952,0,0,0,1.166,2.894A10.523,10.523,0,0,0,3.647,64.021Z" transform="translate(0 -54.82)" fill="#fff"/>
      <path id="Path_182" data-name="Path 182" d="M35.873,186.281q-6.953,4.706-10.558,7.315-1.208.89-1.961,1.389a12.1,12.1,0,0,1-2,1.018,6.1,6.1,0,0,1-2.332.519h-.043A6.1,6.1,0,0,1,16.643,196a12.108,12.108,0,0,1-2-1.018q-.752-.5-1.961-1.389-2.862-2.1-10.537-7.315A11.23,11.23,0,0,1,0,184.437v16.834a3.266,3.266,0,0,0,1,2.4,3.266,3.266,0,0,0,2.4,1H34.6a3.4,3.4,0,0,0,3.392-3.393V184.437A11.692,11.692,0,0,1,35.873,186.281Z" transform="translate(0 -174.812)" fill="#fff"/>
    </g>
  </g>
</svg>
