<svg xmlns="http://www.w3.org/2000/svg" width="19.782" height="36.59" viewBox="0 0 19.782 36.59">
  <g id="facebook-logo" transform="translate(0)">
    <path id="Path_183" data-name="Path 183" d="M41.114.008,36.369,0c-5.331,0-8.776,3.534-8.776,9v4.152H22.823a.746.746,0,0,0-.746.746v6.015a.746.746,0,0,0,.746.746h4.771V35.843a.746.746,0,0,0,.746.746h6.224a.746.746,0,0,0,.746-.746V20.664h5.578a.746.746,0,0,0,.746-.746l0-6.015a.747.747,0,0,0-.746-.746H35.31V9.637c0-1.692.4-2.55,2.607-2.55h3.2a.746.746,0,0,0,.746-.746V.754A.746.746,0,0,0,41.114.008Z" transform="translate(-22.077)" fill="#fff"/>
  </g>
</svg>
