<svg xmlns="http://www.w3.org/2000/svg" width="43.927" height="30.738" viewBox="0 0 43.927 30.738">
  <g id="icon" transform="translate(0.642 -3.216)">
    <path id="Path_27855" data-name="Path 27855" d="M42.635,18.554v1.641a1.639,1.639,0,0,1-1.641,1.641H37.71V25.12a1.639,1.639,0,0,1-1.641,1.641H34.428a1.639,1.639,0,0,1-1.641-1.641V21.836H29.5a1.639,1.639,0,0,1-1.641-1.641V18.554A1.639,1.639,0,0,1,29.5,16.913h3.284V13.629a1.639,1.639,0,0,1,1.641-1.641h1.641a1.639,1.639,0,0,1,1.641,1.641v3.284h3.284A1.638,1.638,0,0,1,42.635,18.554ZM26.08,32.243a1.56,1.56,0,0,1,.044.794c-.061.174-.248.266-.565.266H20.175a1.233,1.233,0,0,1-1-.331,3.333,3.333,0,0,1-.476-1.038L17.3,26.763H8.52l-1.452,5.3a1.9,1.9,0,0,1-.565.973,1.559,1.559,0,0,1-.956.266H.729a.83.83,0,0,1-.651-.2c-.118-.131-.1-.447.043-.951l8.38-27A2.8,2.8,0,0,1,9.022,4.2,1.582,1.582,0,0,1,10.2,3.864h5.47a1.507,1.507,0,0,1,1.194.357,3.354,3.354,0,0,1,.5.972Zm-10.1-10.405L13.056,10.994H12.84L9.869,21.838Z" transform="translate(0 0)" fill="none" stroke="#fff" stroke-width="1.3"/>
  </g>
</svg>
