<svg xmlns="http://www.w3.org/2000/svg" width="22.933" height="21.238" viewBox="0 0 22.933 21.238">
  <path id="like" d="M10.392,5.4A5.469,5.469,0,0,1,15.407,2c3.021,0,5.2,2.584,5.47,5.664A5.636,5.636,0,0,1,20.7,9.8a9.465,9.465,0,0,1-2.885,4.811l-7.422,6.622L3.1,14.615A9.464,9.464,0,0,1,.211,9.8,5.636,5.636,0,0,1,.033,7.664C.307,4.584,2.482,2,5.5,2A5.3,5.3,0,0,1,10.392,5.4Z" transform="translate(1.011 -1)" fill="none" stroke="#fff" stroke-linecap="round" stroke-linejoin="round" stroke-width="2"/>
</svg>
