<svg id="newspaper" xmlns="http://www.w3.org/2000/svg" width="35.228" height="36.5" viewBox="0 0 35.228 36.5">
  <path id="Path_2741" data-name="Path 2741" d="M41.013,2.33H37.869a.582.582,0,1,0,0,1.165h1.084a2.393,2.393,0,0,0-.346,1.242V32.268a.582.582,0,1,0,1.165,0V4.737a1.242,1.242,0,0,1,2.485,0V32.268a3.067,3.067,0,0,1-6.134,0V.582A.582.582,0,0,0,35.539,0H8.775a.582.582,0,0,0-.582.582V32.268A4.237,4.237,0,0,0,12.425,36.5H39.189a4.237,4.237,0,0,0,4.232-4.232V4.737A2.41,2.41,0,0,0,41.013,2.33ZM12.425,35.335a3.071,3.071,0,0,1-3.067-3.067V1.165h25.6v31.1a4.221,4.221,0,0,0,1.319,3.067Z" transform="translate(-8.193)" fill="#535962"/>
  <path id="Path_2742" data-name="Path 2742" d="M69.326,40H48.775a.582.582,0,0,0-.582.582v5.824a.582.582,0,0,0,.582.582H69.326a.582.582,0,0,0,.582-.582V40.582A.582.582,0,0,0,69.326,40Zm-.582,5.824H49.358v-4.66H68.744Z" transform="translate(-45.087 -36.894)" fill="#535962"/>
  <path id="Path_2743" data-name="Path 2743" d="M69.326,145H48.775a.582.582,0,1,0,0,1.165H69.326a.582.582,0,1,0,0-1.165Z" transform="translate(-45.087 -133.739)" fill="#535962"/>
  <path id="Path_2744" data-name="Path 2744" d="M205.2,205h-9.11a.582.582,0,1,0,0,1.165H205.2a.582.582,0,1,0,0-1.165Z" transform="translate(-180.959 -189.08)" fill="#535962"/>
  <path id="Path_2745" data-name="Path 2745" d="M57.886,205H48.775a.582.582,0,0,0,0,1.165h9.111a.582.582,0,0,0,0-1.165Z" transform="translate(-45.087 -189.08)" fill="#535962"/>
  <path id="Path_2746" data-name="Path 2746" d="M205.2,235h-9.11a.582.582,0,1,0,0,1.165H205.2a.582.582,0,1,0,0-1.165Z" transform="translate(-180.959 -216.75)" fill="#535962"/>
  <path id="Path_2747" data-name="Path 2747" d="M57.886,235H48.775a.582.582,0,0,0,0,1.165h9.111a.582.582,0,0,0,0-1.165Z" transform="translate(-45.087 -216.75)" fill="#535962"/>
  <path id="Path_2748" data-name="Path 2748" d="M205.2,265h-9.11a.582.582,0,1,0,0,1.165H205.2a.582.582,0,1,0,0-1.165Z" transform="translate(-180.959 -244.42)" fill="#535962"/>
  <path id="Path_2749" data-name="Path 2749" d="M205.2,295h-9.11a.582.582,0,1,0,0,1.165H205.2a.582.582,0,1,0,0-1.165Z" transform="translate(-180.959 -272.09)" fill="#535962"/>
  <path id="Path_2750" data-name="Path 2750" d="M196.088,326.165h6a.582.582,0,1,0,0-1.165h-6a.582.582,0,1,0,0,1.165Z" transform="translate(-180.959 -299.761)" fill="#535962"/>
  <path id="Path_2751" data-name="Path 2751" d="M202.092,415h-6a.582.582,0,1,0,0,1.165h6a.582.582,0,1,0,0-1.165Z" transform="translate(-180.958 -382.771)" fill="#535962"/>
  <path id="Path_2752" data-name="Path 2752" d="M205.2,385h-9.11a.582.582,0,1,0,0,1.165H205.2a.582.582,0,1,0,0-1.165Z" transform="translate(-180.959 -355.101)" fill="#535962"/>
  <path id="Path_2753" data-name="Path 2753" d="M57.886,265H48.775a.582.582,0,0,0-.582.583v11.649a.582.582,0,0,0,.582.582h9.111a.582.582,0,0,0,.582-.582V265.583A.582.582,0,0,0,57.886,265ZM57.3,276.649H49.358V266.165H57.3Z" transform="translate(-45.087 -244.42)" fill="#535962"/>
</svg>
