<svg xmlns="http://www.w3.org/2000/svg" width="43.5" height="43.5" viewBox="0 0 43.5 43.5">
  <path id="Path_22642" data-name="Path 22642" d="M39.991,8.419h-4.21v2.806h-4.4l-2.612,1.567V11.226H25.959V1.4h9.823V7.016h1.4V0H24.556V12.629h2.806v2.642l4.4-2.642h5.419V9.823h2.806a2.108,2.108,0,0,1,2.1,2.1v21.75H12.919l-1.4-1.4H1.4V11.927a2.108,2.108,0,0,1,2.1-2.1h8.419v.039a3.543,3.543,0,0,0,.37,1.569L13.33,13.5a3.51,3.51,0,0,0,.7.947v1.108l-4.838.879a3.508,3.508,0,0,0-2.88,3.452V30.871H28.765V19.882a3.506,3.506,0,0,0-2.88-3.451l-4.838-.879V14.444a3.51,3.51,0,0,0,.7-.947l1.034-2.066a3.543,3.543,0,0,0,.37-1.569V6.48a3.221,3.221,0,0,0-1.684-2.842l-.721-.721A5.167,5.167,0,0,0,11.927,6.57h1.4a3.764,3.764,0,0,1,6.425-2.661l.877.878.1.051A1.827,1.827,0,0,1,21.749,6.48V9.862a2.119,2.119,0,0,1-.222.941l-1.034,2.065a2.092,2.092,0,0,1-1.883,1.163H16.467a2.092,2.092,0,0,1-1.883-1.163L13.551,10.8a2.128,2.128,0,0,1-.221-.941V8.419H3.507A3.512,3.512,0,0,0,0,11.927V35.782A3.512,3.512,0,0,0,3.507,39.29h9.121V42.1H9.822v1.4H33.677V42.1H30.87V39.29h9.121A3.512,3.512,0,0,0,43.5,35.782V11.927a3.512,3.512,0,0,0-3.508-3.508ZM17.54,19.141l1.042.834-.716,1.074h-.652L16.5,19.974Zm2.982-2.258.494.09-.464,2.781-1.867-1.494Zm-2.33,8.837-.652.652-.652-.652.545-3.268h.214Zm-3.665-5.966-.464-2.781.494-.09,1.837,1.378Zm12.835.129v9.586H24.556V20.347h-1.4v9.121H11.927V20.347h-1.4v9.121H7.717V19.882a2.1,2.1,0,0,1,1.728-2.071l3.238-.589.853,5.121L15.4,20.854l.7,1.054L15.385,26.2l2.155,2.155L19.694,26.2l-.716-4.292.7-1.054,1.861,1.489.853-5.121,3.238.589a2.1,2.1,0,0,1,1.728,2.071Zm-8.751-4.447a3.536,3.536,0,0,0,1.033-.157v.508l-2.1,1.579-2.1-1.579v-.509a3.51,3.51,0,0,0,1.033.158Zm21.38,22.452H15.435v1.4H29.467V42.1H14.032v-4.21H3.507a2.108,2.108,0,0,1-2.1-2.1v-2.1h9.532l1.4,1.4H42.1v.7a2.108,2.108,0,0,1-2.1,2.1Zm0,0" transform="translate(0.001)" fill="#535962"/>
</svg>
