<svg xmlns="http://www.w3.org/2000/svg" width="219.289" height="87.275" viewBox="0 0 219.289 87.275">
  <g id="appstore" transform="translate(0 0)">
    <g id="Group_115" data-name="Group 115" transform="translate(0 0)">
      <path id="Path_147" data-name="Path 147" d="M17.473,0c-.672,0-1.336,0-2.006,0-.561,0-1.118.017-1.684.028A20.449,20.449,0,0,0,10.11.418,10.914,10.914,0,0,0,6.627,1.786,12.139,12.139,0,0,0,3.661,4.358,13.826,13.826,0,0,0,1.5,7.895,16.392,16.392,0,0,0,.356,12.047a33.621,33.621,0,0,0-.328,4.368c-.017.669-.019,1.34-.028,2.009V68.858c.009.677.011,1.334.028,2.011a33.619,33.619,0,0,0,.328,4.368A16.359,16.359,0,0,0,1.5,79.392a13.7,13.7,0,0,0,2.159,3.522,11.831,11.831,0,0,0,2.966,2.572,10.979,10.979,0,0,0,3.483,1.376,20.819,20.819,0,0,0,3.672.386c.566.015,1.123.023,1.684.023.67,0,1.334,0,2.006,0H201.826c.659,0,1.328,0,1.986,0,.558,0,1.131-.008,1.689-.023a20.549,20.549,0,0,0,3.665-.386,11.143,11.143,0,0,0,3.5-1.376,11.839,11.839,0,0,0,2.964-2.572,14.105,14.105,0,0,0,2.165-3.522,16.413,16.413,0,0,0,1.134-4.155,34.953,34.953,0,0,0,.34-4.368c.007-.678.007-1.334.007-2.011.014-.793.014-1.581.014-2.387V20.807c0-.8,0-1.592-.014-2.382,0-.669,0-1.34-.007-2.009a34.942,34.942,0,0,0-.34-4.368,16.445,16.445,0,0,0-1.135-4.153,13.21,13.21,0,0,0-5.129-6.109,11.076,11.076,0,0,0-3.5-1.368A20.186,20.186,0,0,0,205.5.032c-.558-.011-1.131-.023-1.689-.028-.659,0-1.328,0-1.986,0h0" transform="translate(0 0)" fill="#a6a6a6"/>
      <path id="Path_148" data-name="Path 148" d="M203.076.875,204.75.9a19.03,19.03,0,0,1,3.406.357,9.675,9.675,0,0,1,3.062,1.2,10.791,10.791,0,0,1,1.868,1.486,11.87,11.87,0,0,1,2.557,3.833,14.51,14.51,0,0,1,.981,3.624,34.106,34.106,0,0,1,.318,4.148c.005.622.005,1.291.005,1.956.014.824.014,1.609.014,2.4v46c0,.8,0,1.578-.014,2.363,0,.715,0,1.369-.007,2.043a33.414,33.414,0,0,1-.313,4.074,14.456,14.456,0,0,1-.99,3.67,12.188,12.188,0,0,1-1.861,3.046,10.238,10.238,0,0,1-2.564,2.247,9.557,9.557,0,0,1-3.057,1.208,19.27,19.27,0,0,1-3.425.358c-.537.015-1.1.024-1.645.024l-1.986,0-186.35,0c-.558,0-1.1-.009-1.657-.024a19.493,19.493,0,0,1-3.425-.358,9.6,9.6,0,0,1-3.036-1.2,10.213,10.213,0,0,1-2.56-2.234A11.842,11.842,0,0,1,2.2,78.054a14.4,14.4,0,0,1-1-3.642A32.591,32.591,0,0,1,.9,70.29c-.012-.464-.027-2.007-.027-2.007V17.511s.016-1.52.027-1.966a32.479,32.479,0,0,1,.3-4.115,14.484,14.484,0,0,1,1-3.653,11.976,11.976,0,0,1,1.86-3.073,10.52,10.52,0,0,1,2.57-2.247,9.491,9.491,0,0,1,3.03-1.2A19.338,19.338,0,0,1,13.1.9L14.75.875" transform="translate(0.727 0.729)"/>
    </g>
    <g id="_Group_" data-name=" Group " transform="translate(169.439 22.668)">
      <g id="_Group_2" data-name=" Group 2" transform="translate(0 0)">
        <path id="_Path_" data-name=" Path " d="M119.578,25.569A9.069,9.069,0,0,1,123.9,17.96a9.283,9.283,0,0,0-7.314-3.954c-3.077-.323-6.061,1.841-7.629,1.841-1.6,0-4.013-1.809-6.613-1.756a9.74,9.74,0,0,0-8.2,5c-3.544,6.136-.9,15.154,2.494,20.114,1.7,2.429,3.684,5.142,6.281,5.046,2.542-.105,3.491-1.621,6.559-1.621,3.04,0,3.93,1.621,6.581,1.56,2.728-.044,4.446-2.44,6.085-4.891a20.088,20.088,0,0,0,2.783-5.667,8.763,8.763,0,0,1-5.35-8.062Z" transform="translate(-92.462 -4.347)" fill="#fff"/>
        <path id="_Path_2" data-name=" Path 2" d="M107.23,15.117a8.929,8.929,0,0,0,2.042-6.4,9.085,9.085,0,0,0-5.878,3.041,8.5,8.5,0,0,0-2.1,6.16,7.512,7.512,0,0,0,5.931-2.8Z" transform="translate(-85.12 -8.72)" fill="#fff"/>
      </g>
    </g>
    <g id="Group_116" data-name="Group 116" transform="translate(17.085 42.994)">
      <path id="Path_149" data-name="Path 149" d="M23.754,34.684H15.08L13,40.834H9.323l8.216-22.756h3.817l8.216,22.756H25.835Zm-7.776-2.838h6.876l-3.389-9.982H19.37Z" transform="translate(-9.323 -17.699)" fill="#fff"/>
      <path id="Path_150" data-name="Path 150" d="M37.156,29.819c0,5.156-2.76,8.468-6.924,8.468a5.625,5.625,0,0,1-5.22-2.9h-.079V43.6H21.527V21.523h3.3v2.76h.063a5.885,5.885,0,0,1,5.283-2.933C34.38,21.349,37.156,24.678,37.156,29.819Zm-3.5,0c0-3.359-1.736-5.567-4.384-5.567-2.6,0-4.352,2.255-4.352,5.567,0,3.343,1.75,5.582,4.352,5.582,2.649,0,4.384-2.192,4.384-5.582Z" transform="translate(0.837 -14.978)" fill="#fff"/>
      <path id="Path_151" data-name="Path 151" d="M47.121,29.819c0,5.156-2.76,8.468-6.924,8.468a5.625,5.625,0,0,1-5.22-2.9H34.9V43.6H31.492V21.523h3.3v2.76h.063a5.885,5.885,0,0,1,5.283-2.933C44.345,21.349,47.121,24.678,47.121,29.819Zm-3.5,0c0-3.359-1.736-5.567-4.384-5.567-2.6,0-4.352,2.255-4.352,5.567,0,3.343,1.75,5.582,4.352,5.582,2.648,0,4.384-2.192,4.384-5.582Z" transform="translate(9.133 -14.978)" fill="#fff"/>
      <path id="Path_152" data-name="Path 152" d="M48.19,34.666c.252,2.257,2.445,3.738,5.44,3.738,2.87,0,4.936-1.482,4.936-3.517,0-1.766-1.246-2.824-4.195-3.549l-2.949-.71C47.243,29.62,45.3,27.665,45.3,24.494c0-3.926,3.422-6.623,8.28-6.623,4.809,0,8.105,2.7,8.216,6.623H58.362c-.206-2.271-2.083-3.642-4.827-3.642s-4.621,1.387-4.621,3.406c0,1.609,1.2,2.556,4.132,3.28l2.507.616c4.669,1.1,6.609,2.98,6.609,6.308,0,4.257-3.391,6.924-8.785,6.924-5.047,0-8.454-2.6-8.674-6.72Z" transform="translate(20.133 -17.871)" fill="#fff"/>
      <path id="Path_153" data-name="Path 153" d="M60.892,19.3v3.926h3.155v2.7H60.892V35.07c0,1.421.632,2.083,2.019,2.083a10.642,10.642,0,0,0,1.12-.079v2.681a9.353,9.353,0,0,1-1.892.157c-3.359,0-4.669-1.262-4.669-4.479v-9.51H55.058v-2.7h2.412V19.3Z" transform="translate(28.753 -16.682)" fill="#fff"/>
      <path id="Path_154" data-name="Path 154" d="M60.961,29.832c0-5.22,3.074-8.5,7.869-8.5,4.81,0,7.871,3.28,7.871,8.5s-3.044,8.5-7.871,8.5S60.961,35.066,60.961,29.832Zm12.269,0c0-3.581-1.641-5.694-4.4-5.694s-4.4,2.13-4.4,5.694c0,3.6,1.639,5.693,4.4,5.693s4.4-2.1,4.4-5.693Z" transform="translate(33.667 -14.991)" fill="#fff"/>
      <path id="Path_155" data-name="Path 155" d="M71.082,21.523H74.33v2.824h.079a3.957,3.957,0,0,1,3.991-3,5.253,5.253,0,0,1,1.167.127v3.185a4.761,4.761,0,0,0-1.53-.206,3.432,3.432,0,0,0-3.549,3.817v9.841H71.082Z" transform="translate(42.093 -14.978)" fill="#fff"/>
      <path id="Path_156" data-name="Path 156" d="M91.079,33.253c-.458,3.012-3.391,5.079-7.144,5.079-4.826,0-7.822-3.234-7.822-8.422,0-5.2,3.012-8.579,7.679-8.579,4.59,0,7.477,3.153,7.477,8.184v1.167H79.551v.206a4.321,4.321,0,0,0,4.463,4.7,3.754,3.754,0,0,0,3.831-2.334ZM79.567,28.3h8.295A3.99,3.99,0,0,0,84.1,24.1q-.154-.009-.308-.005a4.2,4.2,0,0,0-4.225,4.175Q79.567,28.284,79.567,28.3Z" transform="translate(46.282 -14.991)" fill="#fff"/>
    </g>
    <g id="Group_117" data-name="Group 117" transform="translate(92.592 19.744)">
      <path id="Path_157" data-name="Path 157" d="M56.514,21.887h-1.2c-2.331,0-4.79-.479-4.79-3.7a17.978,17.978,0,0,1,.99-4.247l1.549.415-.224.719a14.528,14.528,0,0,0-.654,3.113c0,2.219,2.123,2.219,3.56,2.219h1.006c.719,0,1.708-.287,1.708-1.2V12.9h1.709v4.726a2.814,2.814,0,0,0,1.165.223h.591v1.469h-.591a4.148,4.148,0,0,1-1.165-.175v.224C60.171,20.194,59.532,21.887,56.514,21.887ZM55.54,11.173a1.031,1.031,0,1,1,1.085-1.038,1.013,1.013,0,0,1-.985,1.04q-.05,0-.1,0Z" transform="translate(-50.527 -8.346)" fill="#fff"/>
      <path id="Path_158" data-name="Path 158" d="M58.808,16.57a7.366,7.366,0,0,1-.272-2.156A3.413,3.413,0,0,1,62,10.647c2.267,0,3.146,1.852,3.146,4.056,0,1.629-.575,3.831-2.794,3.831a8.4,8.4,0,0,1-2.139-.495H56.588V16.57Zm1.724.064a5.162,5.162,0,0,0,1.708.4c.99,0,1.262-1.262,1.262-2.379,0-1.069-.3-2.6-1.6-2.6-1.165,0-1.676,1.085-1.676,2.459a6.265,6.265,0,0,0,.3,2.123Z" transform="translate(-45.48 -7.07)" fill="#fff"/>
      <path id="Path_159" data-name="Path 159" d="M70.128,22.14h-1.2c-2.332,0-4.791-.479-4.791-3.7a18.024,18.024,0,0,1,.99-4.247l1.55.415-.224.719a14.521,14.521,0,0,0-.655,3.113c0,2.219,2.124,2.219,3.561,2.219h1.006c.718,0,1.707-.287,1.707-1.2V8.808h1.709v9.07a2.817,2.817,0,0,0,1.165.223h.591V19.57h-.591a4.157,4.157,0,0,1-1.165-.175v.224C73.784,20.448,73.145,22.14,70.128,22.14Z" transform="translate(-39.193 -8.6)" fill="#fff"/>
      <path id="Path_160" data-name="Path 160" d="M76.238,10.69v4.486c0,1.9-1.135,2.826-3.386,2.826H70.2V16.533h2.588c1.356,0,1.723-.591,1.723-1.6V10.69ZM71.959,21.579a1.031,1.031,0,1,1,1.086-1.038,1.013,1.013,0,0,1-1.086,1.038Zm2.683,0a1.031,1.031,0,1,1,1.084-1.038,1.013,1.013,0,0,1-.985,1.04q-.05,0-.1,0Z" transform="translate(-34.147 -7.033)" fill="#fff"/>
      <path id="Path_161" data-name="Path 161" d="M74.38,21.639a6.393,6.393,0,0,0,.734.047c1.407,0,2.108-.814,2.108-2.459V12.809h1.725v4.965h1.58v1.469h-1.6a4.307,4.307,0,0,1-1.1,2.954,4.059,4.059,0,0,1-2.777.942,9.5,9.5,0,0,1-1.086-.08ZM78,11.26a1.031,1.031,0,1,1,1.086-1.038A1.012,1.012,0,0,1,78,11.26Z" transform="translate(-31.014 -8.274)" fill="#fff"/>
      <path id="Path_162" data-name="Path 162" d="M83.343,19.664a4.3,4.3,0,0,1-1.963-.543,4.767,4.767,0,0,1-2.7.543H77.387V18.195h1.39c1.308,0,1.564-.208,1.564-1.165V12.352h1.709v5.556a2.91,2.91,0,0,0,1.292.287h1.07v1.469Zm-2.219-8.909A1.031,1.031,0,1,1,82.21,9.717a1.012,1.012,0,0,1-1.086,1.038Z" transform="translate(-28.165 -8.695)" fill="#fff"/>
      <path id="Path_163" data-name="Path 163" d="M85.438,12.352v4.486c0,1.9-1.133,2.826-3.384,2.826h-.991V18.195h.927c1.356,0,1.723-.591,1.723-1.6V12.352Zm-2.539-1.6a1.031,1.031,0,1,1,1.086-1.038A1.012,1.012,0,0,1,82.9,10.755Zm2.683,0a1.031,1.031,0,1,1,1.086-1.038,1.012,1.012,0,0,1-1.086,1.038Z" transform="translate(-25.105 -8.695)" fill="#fff"/>
    </g>
  </g>
</svg>
