<svg xmlns="http://www.w3.org/2000/svg" width="32.5" height="37.829" viewBox="0 0 32.5 37.829">
  <g id="calculator" transform="translate(0 0)">
    <path id="Path_9161" data-name="Path 9161" d="M248.034,353.75H243.1a.6.6,0,0,0-.6.6v4.93a.6.6,0,0,0,.6.6h4.93a.6.6,0,0,0,.6-.6v-4.93A.6.6,0,0,0,248.034,353.75Zm-.6,4.93h-3.723v-3.723h3.723Z" transform="translate(-225.715 -325.277)" fill="#535962"/>
    <path id="Path_9162" data-name="Path 9162" d="M156.784,353.75h-4.93a.6.6,0,0,0-.6.6v4.93a.6.6,0,0,0,.6.6h4.93a.6.6,0,0,0,.6-.6v-4.93A.6.6,0,0,0,156.784,353.75Zm-.6,4.93h-3.723v-3.723h3.723Z" transform="translate(-141.673 -325.277)" fill="#535962"/>
    <path id="Path_9163" data-name="Path 9163" d="M156.784,262.5h-4.93a.6.6,0,0,0-.6.6v4.93a.6.6,0,0,0,.6.6h4.93a.6.6,0,0,0,.6-.6V263.1A.6.6,0,0,0,156.784,262.5Zm-.6,4.93h-3.723v-3.723h3.723Z" transform="translate(-141.673 -241.372)" fill="#535962"/>
    <path id="Path_9164" data-name="Path 9164" d="M65.534,353.75H60.6a.6.6,0,0,0-.6.6v4.93a.6.6,0,0,0,.6.6h4.93a.6.6,0,0,0,.6-.6v-4.93A.6.6,0,0,0,65.534,353.75Zm-.6,4.93H61.207v-3.723H64.93Z" transform="translate(-57.585 -325.277)" fill="#535962"/>
    <path id="Path_9165" data-name="Path 9165" d="M339.284,202.5h-4.93a.6.6,0,0,0-.6.6v2.415a.6.6,0,0,0,.6.6h4.93a.6.6,0,0,0,.6-.6V203.1A.6.6,0,0,0,339.284,202.5Zm-.6,2.415h-3.723v-1.207h3.723Z" transform="translate(-309.802 -186.201)" fill="#535962"/>
    <path id="Path_9166" data-name="Path 9166" d="M248.034,262.5H243.1a.6.6,0,0,0-.6.6v4.93a.6.6,0,0,0,.6.6h4.93a.6.6,0,0,0,.6-.6V263.1A.6.6,0,0,0,248.034,262.5Zm-.6,4.93h-3.723v-3.723h3.723Z" transform="translate(-225.715 -241.372)" fill="#535962"/>
    <path id="Path_9167" data-name="Path 9167" d="M65.534,262.5H60.6a.6.6,0,0,0-.6.6v4.93a.6.6,0,0,0,.6.6h4.93a.6.6,0,0,0,.6-.6V263.1A.6.6,0,0,0,65.534,262.5Zm-.6,4.93H61.207v-3.723H64.93Z" transform="translate(-57.585 -241.372)" fill="#535962"/>
    <path id="Path_9168" data-name="Path 9168" d="M248.034,202.5H243.1a.6.6,0,0,0-.6.6v2.415a.6.6,0,0,0,.6.6h4.93a.6.6,0,0,0,.6-.6V203.1A.6.6,0,0,0,248.034,202.5Zm-.6,2.415h-3.723v-1.207h3.723Z" transform="translate(-225.715 -186.201)" fill="#535962"/>
    <path id="Path_9169" data-name="Path 9169" d="M59.527,0H32.973A3,3,0,0,0,30,3.018V34.811a3,3,0,0,0,2.973,3.018H59.527A3,3,0,0,0,62.5,34.811V3.018A3,3,0,0,0,59.527,0Zm1.784,34.811a1.8,1.8,0,0,1-1.784,1.811H32.973a1.8,1.8,0,0,1-1.784-1.811V3.018a1.8,1.8,0,0,1,1.784-1.811H59.527a1.8,1.8,0,0,1,1.784,1.811Z" transform="translate(-30)" fill="#535962"/>
    <path id="Path_9170" data-name="Path 9170" d="M339.284,262.5h-4.93a.6.6,0,0,0-.6.6v12.274a.6.6,0,0,0,.6.6h4.93a.6.6,0,0,0,.6-.6v-7.445a.6.6,0,0,0-1.207,0v6.841h-3.723V263.707h3.723v1.811a.6.6,0,1,0,1.207,0V263.1A.6.6,0,0,0,339.284,262.5Z" transform="translate(-309.802 -241.372)" fill="#535962"/>
    <path id="Path_9171" data-name="Path 9171" d="M87.078,40H60.593a.6.6,0,0,0-.593.6v9.86a.6.6,0,0,0,.593.6h4.842a.6.6,0,0,0,0-1.207H61.186V41.207h25.3V49.86H67.807a.6.6,0,0,0,0,1.207H87.078a.6.6,0,0,0,.593-.6V40.6A.6.6,0,0,0,87.078,40Z" transform="translate(-57.585 -36.78)" fill="#535962"/>
    <path id="Path_9172" data-name="Path 9172" d="M335.6,71.207h2.415a.6.6,0,1,0,0-1.207H335.6a.6.6,0,0,0,0,1.207Z" transform="translate(-310.951 -64.366)" fill="#535962"/>
    <path id="Path_9173" data-name="Path 9173" d="M335.6,131.207h2.415a.6.6,0,1,0,0-1.207H335.6a.6.6,0,0,0,0,1.207Z" transform="translate(-310.951 -119.537)" fill="#535962"/>
    <path id="Path_9174" data-name="Path 9174" d="M335,92.213a.6.6,0,1,0,1.207,0V90.6a.6.6,0,1,0-1.207,0Z" transform="translate(-310.837 -82.756)" fill="#535962"/>
  </g>
</svg>
