<svg xmlns="http://www.w3.org/2000/svg" width="35.096" height="35.104" viewBox="0 0 35.096 35.104">
  <g id="calendar_1_" data-name="calendar (1)" transform="translate(-0.051)">
    <path id="Path_8878" data-name="Path 8878" d="M31.637,19.319V5.264A2.928,2.928,0,0,0,28.713,2.34H25.788V1.755a1.755,1.755,0,1,0-3.51,0V2.34H17.6V1.755a1.755,1.755,0,1,0-3.51,0V2.34H9.41V1.755a1.755,1.755,0,1,0-3.51,0V2.34H2.976A2.928,2.928,0,0,0,.051,5.264V23.982a2.928,2.928,0,0,0,2.925,2.925H17.629a8.768,8.768,0,1,0,14.009-7.588ZM23.448,1.755a.585.585,0,1,1,1.17,0v2.34a.585.585,0,1,1-1.17,0Zm-8.189,0a.585.585,0,1,1,1.17,0v2.34a.585.585,0,0,1-1.17,0Zm-8.189,0a.585.585,0,0,1,1.17,0v2.34a.585.585,0,0,1-1.17,0ZM2.976,3.51H5.9v.585a1.755,1.755,0,0,0,3.51,0V3.51h4.679v.585a1.755,1.755,0,0,0,3.51,0V3.51h4.679v.585a1.755,1.755,0,1,0,3.51,0V3.51h2.925a1.755,1.755,0,0,1,1.755,1.755V8.189H1.221V5.264A1.755,1.755,0,0,1,2.976,3.51ZM1.221,23.982V9.359H30.468v9.209a8.756,8.756,0,0,0-12.839,7.169H2.976a1.755,1.755,0,0,1-1.755-1.755Zm25.152,9.944a7.6,7.6,0,1,1,7.6-7.6A7.6,7.6,0,0,1,26.373,33.926Zm0,0" fill="#327bf9"/>
    <path id="Path_8879" data-name="Path 8879" d="M316.145,299.033V296h-1.17v3.032a1.754,1.754,0,0,0-1.062,1.062h-1.862v1.17h1.862a1.751,1.751,0,1,0,2.232-2.232Zm-.585,2.232a.585.585,0,1,1,.585-.585A.585.585,0,0,1,315.56,301.265Zm0,0" transform="translate(-289.188 -274.358)" fill="#327bf9"/>
    <path id="Path_8881" data-name="Path 8881" d="M146.391,160a2.34,2.34,0,1,0,2.34,2.34A2.34,2.34,0,0,0,146.391,160Zm0,3.51a1.17,1.17,0,1,1,1.17-1.17A1.17,1.17,0,0,1,146.391,163.51Zm0,0" transform="translate(-133.471 -148.301)" fill="#327bf9"/>
    <path id="Path_8882" data-name="Path 8882" d="M226.391,164.679a2.34,2.34,0,1,0-2.34-2.34A2.34,2.34,0,0,0,226.391,164.679Zm0-3.51a1.17,1.17,0,1,1-1.17,1.17A1.17,1.17,0,0,1,226.391,161.17Zm0,0" transform="translate(-207.622 -148.301)" fill="#327bf9"/>
    <path id="Path_8883" data-name="Path 8883" d="M306.391,164.679a2.34,2.34,0,1,0-2.34-2.34A2.34,2.34,0,0,0,306.391,164.679Zm0-3.51a1.17,1.17,0,1,1-1.17,1.17A1.17,1.17,0,0,1,306.391,161.17Zm0,0" transform="translate(-281.773 -148.301)" fill="#327bf9"/>
    <path id="Path_8884" data-name="Path 8884" d="M66.391,160a2.34,2.34,0,1,0,2.34,2.34A2.34,2.34,0,0,0,66.391,160Zm0,3.51a1.17,1.17,0,1,1,1.17-1.17A1.17,1.17,0,0,1,66.391,163.51Zm0,0" transform="translate(-59.32 -148.301)" fill="#327bf9"/>
    <path id="Path_8885" data-name="Path 8885" d="M146.391,240a2.34,2.34,0,1,0,2.34,2.34A2.34,2.34,0,0,0,146.391,240Zm0,3.51a1.17,1.17,0,1,1,1.17-1.17A1.17,1.17,0,0,1,146.391,243.51Zm0,0" transform="translate(-133.471 -222.452)" fill="#327bf9"/>
    <path id="Path_8886" data-name="Path 8886" d="M225.616,244.577l.39-1.1a1.17,1.17,0,1,1,1.28-1.864l.887-.761a2.34,2.34,0,1,0-2.557,3.729Zm0,0" transform="translate(-207.628 -222.483)" fill="#327bf9"/>
    <path id="Path_8887" data-name="Path 8887" d="M66.391,240a2.34,2.34,0,1,0,2.34,2.34A2.34,2.34,0,0,0,66.391,240Zm0,3.51a1.17,1.17,0,1,1,1.17-1.17A1.17,1.17,0,0,1,66.391,243.51Zm0,0" transform="translate(-59.32 -222.452)" fill="#327bf9"/>
  </g>
</svg>
