<svg xmlns="http://www.w3.org/2000/svg" width="38.153" height="35.018" viewBox="0 0 38.153 35.018">
  <g id="chat_1_" data-name="chat (1)" transform="translate(0 -2.465)" opacity="0.745">
    <path id="Path_55" data-name="Path 55" d="M25.478,13.465,3.771,13.51A3.775,3.775,0,0,0,0,17.28V30.723a3.774,3.774,0,0,0,3.771,3.77h3.86v6.359a.636.636,0,0,0,1.106.428l6.171-6.788,10.572-.043a3.775,3.775,0,0,0,3.771-3.77V17.236A3.775,3.775,0,0,0,25.478,13.465ZM6.359,19.824h8.266a.636.636,0,1,1,0,1.272H6.359a.636.636,0,1,1,0-1.272Zm16.533,8.9H6.359a.636.636,0,0,1,0-1.272H22.892a.636.636,0,1,1,0,1.272Zm0-3.815H6.359a.636.636,0,1,1,0-1.272H22.892a.636.636,0,1,1,0,1.272Z" transform="translate(0 -4.005)" fill="#fff"/>
    <path id="Path_56" data-name="Path 56" d="M39.481,2.51l-21.71-.045A3.775,3.775,0,0,0,14,6.236V8.222l16.574-.034A5.05,5.05,0,0,1,35.62,13.23V28l2.073,2.28a.636.636,0,0,0,1.106-.428V23.494h.68a3.775,3.775,0,0,0,3.771-3.77V6.28A3.775,3.775,0,0,0,39.481,2.51Z" transform="translate(-5.098)" fill="#fff"/>
  </g>
</svg>
