<svg id="coding" xmlns="http://www.w3.org/2000/svg" width="41" height="41" viewBox="0 0 41 41">
  <g id="Group_7975" data-name="Group 7975" transform="translate(0 35.533)">
    <g id="Group_7974" data-name="Group 7974">
      <path id="Path_26368" data-name="Path 26368" d="M4.783,416A4.789,4.789,0,0,0,0,420.783a.683.683,0,0,0,.683.683h8.2a.683.683,0,0,0,.683-.683A4.789,4.789,0,0,0,4.783,416Zm-3.348,4.1A3.421,3.421,0,0,1,4.1,417.442v1.292H5.467v-1.292A3.422,3.422,0,0,1,8.131,420.1Z" transform="translate(0 -416)" fill="#8d8e8e"/>
    </g>
  </g>
  <g id="Group_7977" data-name="Group 7977">
    <g id="Group_7976" data-name="Group 7976">
      <path id="Path_26369" data-name="Path 26369" d="M40.317,29.383h-1.2c-.038-.095-.077-.189-.119-.284l.848-.848a.683.683,0,0,0,0-.966l-2.9-2.9a.672.672,0,0,0-.513-.194,3.409,3.409,0,0,0,1.831-3.009V3.417A3.421,3.421,0,0,0,34.85,0H3.417A3.421,3.421,0,0,0,0,3.417V21.183A3.421,3.421,0,0,0,3.417,24.6h8.918L9.753,29.383H8.542a2.392,2.392,0,0,0,0,4.783H23.233a.683.683,0,0,0,.683.683h1.2c.038.095.077.189.119.284l-.848.848a.683.683,0,0,0,0,.966l2.9,2.9a.683.683,0,0,0,.966,0L29.1,39c.095.042.189.081.284.119v1.2a.683.683,0,0,0,.683.683h4.1a.683.683,0,0,0,.683-.683v-1.2c.095-.038.189-.077.284-.119l.848.848a.683.683,0,0,0,.966,0l2.9-2.9a.683.683,0,0,0,0-.966L39,35.134c.042-.095.081-.189.119-.284h1.2A.683.683,0,0,0,41,34.167v-4.1A.683.683,0,0,0,40.317,29.383ZM1.367,3.417a2.053,2.053,0,0,1,2.05-2.05H34.85a2.053,2.053,0,0,1,2.05,2.05v14.35H1.367Zm2.05,19.817a2.053,2.053,0,0,1-2.05-2.05v-2.05H36.9v2.05a2.053,2.053,0,0,1-2.05,2.05H3.417ZM35.973,24.4l-.839.839c-.095-.042-.189-.081-.284-.119V24.6A3.372,3.372,0,0,0,35.973,24.4Zm-6.59.2v.515c-.095.038-.189.077-.284.119l-.634-.634Zm-2.313,0-.589.589-.4-.589Zm-3.837,8.2H8.542a1.025,1.025,0,0,1,0-2.05H23.233ZM11.305,29.383,13.887,24.6h10.54L25.5,26.172l-1.112,1.112a.683.683,0,0,0,0,.966l.848.848c-.042.095-.081.189-.119.284H11.305Zm28.328,4.1h-1a.684.684,0,0,0-.652.478,6.148,6.148,0,0,1-.417,1,.684.684,0,0,0,.123.8l.708.708L36.466,38.4l-.708-.708a.685.685,0,0,0-.8-.123,6.148,6.148,0,0,1-1,.417.685.685,0,0,0-.478.653v1H30.75v-1a.684.684,0,0,0-.478-.652,6.148,6.148,0,0,1-1-.417.685.685,0,0,0-.8.123l-.708.708-1.932-1.932.708-.708a.684.684,0,0,0,.123-.8,6.148,6.148,0,0,1-.417-1,.685.685,0,0,0-.653-.478h-1V30.75h1a.684.684,0,0,0,.652-.478,6.148,6.148,0,0,1,.417-1,.684.684,0,0,0-.123-.8l-.708-.708,1.932-1.932.708.708a.682.682,0,0,0,.8.123,6.148,6.148,0,0,1,1-.417.685.685,0,0,0,.478-.653v-1h2.733v1a.684.684,0,0,0,.478.652,6.148,6.148,0,0,1,1,.417.683.683,0,0,0,.8-.123l.708-.708L38.4,27.767l-.708.708a.684.684,0,0,0-.123.8,6.148,6.148,0,0,1,.417,1,.685.685,0,0,0,.653.478h1Z" fill="#8d8e8e"/>
    </g>
  </g>
  <g id="Group_7979" data-name="Group 7979" transform="translate(28.017 28.017)">
    <g id="Group_7978" data-name="Group 7978">
      <path id="Path_26370" data-name="Path 26370" d="M332.1,328a4.1,4.1,0,1,0,4.1,4.1A4.1,4.1,0,0,0,332.1,328Zm0,6.833a2.733,2.733,0,1,1,2.733-2.733A2.736,2.736,0,0,1,332.1,334.833Z" transform="translate(-328 -328)" fill="#8d8e8e"/>
    </g>
  </g>
  <g id="Group_7981" data-name="Group 7981" transform="translate(7.516 4.3)">
    <g id="Group_7980" data-name="Group 7980">
      <path id="Path_26371" data-name="Path 26371" d="M93.948,51.31l-.966-.966L88.2,55.127a.683.683,0,0,0,0,.966l4.783,4.783.966-.966-4.3-4.3Z" transform="translate(-87.998 -50.344)" fill="#8d8e8e"/>
    </g>
  </g>
  <g id="Group_7983" data-name="Group 7983" transform="translate(22.75 4.3)">
    <g id="Group_7982" data-name="Group 7982">
      <path id="Path_26372" data-name="Path 26372" d="M272.094,55.127l-4.783-4.783-.966.966,4.3,4.3-4.3,4.3.966.966,4.783-4.783A.683.683,0,0,0,272.094,55.127Z" transform="translate(-266.344 -50.344)" fill="#8d8e8e"/>
    </g>
  </g>
  <g id="Group_7985" data-name="Group 7985" transform="translate(14.421 2.432)">
    <g id="Group_7984" data-name="Group 7984">
      <rect id="Rectangle_6498" data-name="Rectangle 6498" width="13.748" height="1.367" transform="translate(0 12.296) rotate(-63.435)" fill="#8d8e8e"/>
    </g>
  </g>
  <g id="Group_7987" data-name="Group 7987" transform="translate(26.65 13.667)">
    <g id="Group_7986" data-name="Group 7986">
      <rect id="Rectangle_6499" data-name="Rectangle 6499" width="1.367" height="1.367" fill="#8d8e8e"/>
    </g>
  </g>
  <g id="Group_7989" data-name="Group 7989" transform="translate(29.383 13.667)">
    <g id="Group_7988" data-name="Group 7988">
      <rect id="Rectangle_6500" data-name="Rectangle 6500" width="1.367" height="1.367" fill="#8d8e8e"/>
    </g>
  </g>
  <g id="Group_7991" data-name="Group 7991" transform="translate(32.117 13.667)">
    <g id="Group_7990" data-name="Group 7990">
      <rect id="Rectangle_6501" data-name="Rectangle 6501" width="1.367" height="1.367" fill="#8d8e8e"/>
    </g>
  </g>
</svg>
