<svg xmlns="http://www.w3.org/2000/svg" width="45.981" height="46" viewBox="0 0 45.981 46">
  <g id="drawing" transform="translate(0.893)">
    <g id="Group_7549" data-name="Group 7549" transform="translate(-0.893)">
      <g id="Group_7548" data-name="Group 7548" transform="translate(0)">
        <path id="Path_22626" data-name="Path 22626" d="M390,390.04a2.964,2.964,0,0,0,0,4.293,2.964,2.964,0,0,0,4.293,0A3.036,3.036,0,1,0,390,390.04Zm3.22,3.3a1.518,1.518,0,0,1-2.147-2.147,1.482,1.482,0,0,1,2.147,0A1.482,1.482,0,0,1,393.22,393.337Z" transform="translate(-354.043 -354.16)" fill="#535962"/>
        <path id="Path_22627" data-name="Path 22627" d="M44.571,36.8,30.771,23l5.443-5.443h0l3.22-3.22h0L44.111,9.66a3.378,3.378,0,0,0,0-4.753L40.2,1a3.332,3.332,0,0,0-4.753,0L30.771,5.673l-3.22,3.22-5.443,5.443L8.46.69a2.365,2.365,0,0,0-3.22,0L-.2,6.133a2.223,2.223,0,0,0,0,3.22l1.61,1.61h0l4.37,4.37h0l4.293,4.293h0L13.444,23,1.136,35.308a.778.778,0,0,0-.419.573l-1.61,9.2a.937.937,0,0,0,.23.69A.7.7,0,0,0-.126,46H.027l8.845-1.635a.781.781,0,0,0,.2.025.6.6,0,0,0,.537-.23l12.5-12.5,1,1h0l2.147,2.147h0L35.908,45.464a1.8,1.8,0,0,0,1.3.537,1.526,1.526,0,0,0,1.227-.537l6.133-6.133A1.805,1.805,0,0,0,44.571,36.8Zm-35.5,5.673L6.391,39.791l25.49-25.417,2.646,2.646ZM36.521,2.07a1.9,1.9,0,0,1,2.607,0l3.91,3.91a1.9,1.9,0,0,1,0,2.607l-4.14,4.14L32.381,6.21ZM31.307,7.283l3.258,3.258L37.824,13.8l-2.147,2.147L29.161,9.43ZM13.865,21.275l1.648-1.648a.759.759,0,0,0-1.073-1.073L12.792,20.2,11.68,19.09l2.683-2.683a.759.759,0,0,0-1.073-1.073l-2.683,2.683L9.534,16.944l1.61-1.61A.759.759,0,1,0,10.07,14.26L8.46,15.87,7.387,14.8l2.683-2.683A.759.759,0,0,0,9,11.04L6.314,13.724l-1.15-1.15,1.61-1.61A.759.759,0,1,0,5.7,9.89L4.09,11.5,3.017,10.427,5.7,7.743A.759.759,0,0,0,4.627,6.67L1.944,9.354.87,8.28a.741.741,0,0,1,0-1.073L6.314,1.763a.7.7,0,0,1,.537-.23.828.828,0,0,1,.537.23L21.034,15.41l-6.517,6.517Zm14.222-10.7,2.683,2.683L5.28,38.68,2.634,36.034ZM2.02,37.567l2.515,2.515a.8.8,0,0,0,.168.245L7.475,43.1.87,44.237Zm41.477.69-6.133,6.133a.348.348,0,0,1-.383,0l-7.935-7.935,2.722-2.722a.759.759,0,0,0-1.073-1.073l-2.722,2.722-1.112-1.112,1.61-1.61A.759.759,0,0,0,27.4,31.587l-1.61,1.61-1.073-1.073L27.4,29.44a.759.759,0,0,0-1.073-1.073L23.641,31.05l-.46-.46L29.7,24.074l13.8,13.8A.348.348,0,0,1,43.5,38.257Z" transform="translate(0.893)" fill="#535962"/>
      </g>
    </g>
  </g>
</svg>
