<svg id="exam" xmlns="http://www.w3.org/2000/svg" width="31.765" height="38.118" viewBox="0 0 31.765 38.118">
  <g id="Group_1563" data-name="Group 1563" transform="translate(17.788 11.435)">
    <g id="Group_1562" data-name="Group 1562">
      <path id="Path_9134" data-name="Path 9134" d="M250.541,145.271V144h-1.271v1.271H248v1.271h1.271v1.271h1.271v-1.271h1.271v-1.271Z" transform="translate(-248 -144)" fill="#002f57"/>
    </g>
  </g>
  <g id="Group_1565" data-name="Group 1565" transform="translate(10.845 9.529)">
    <g id="Group_1564" data-name="Group 1564">
      <path id="Path_9135" data-name="Path 9135" d="M164.29,120.4a.636.636,0,0,0-1.18,0l-2.541,6.353,1.18.473.6-1.507h2.7l.6,1.507,1.18-.473Zm-1.431,4.048.84-2.1.841,2.1Z" transform="translate(-160.568 -120)" fill="#002f57"/>
    </g>
  </g>
  <g id="Group_1567" data-name="Group 1567" transform="translate(7.624 6.353)">
    <g id="Group_1566" data-name="Group 1566" transform="translate(0)">
      <path id="Path_9136" data-name="Path 9136" d="M128.894,80c-4.9,0-8.894,3.135-8.894,6.988s3.99,6.988,8.894,6.988a10.988,10.988,0,0,0,4.048-.762l-.473-1.18a9.7,9.7,0,0,1-3.575.672c-4.2,0-7.624-2.565-7.624-5.718s3.42-5.718,7.624-5.718,7.624,2.565,7.624,5.718a4.929,4.929,0,0,1-1.7,3.593l.863.933a6.184,6.184,0,0,0,2.11-4.526C137.788,83.135,133.8,80,128.894,80Z" transform="translate(-120 -80)" fill="#002f57"/>
    </g>
  </g>
  <g id="Group_1569" data-name="Group 1569">
    <g id="Group_1568" data-name="Group 1568">
      <path id="Path_9137" data-name="Path 9137" d="M55.13,5.082H53.224V3.176a.635.635,0,0,0-.635-.635H34.165V2.224a2.224,2.224,0,0,0-4.447,0v.318H28.447a.635.635,0,0,0-.635.635V30.494H24.635A.635.635,0,0,0,24,31.13v1.906a2.541,2.541,0,0,0,2.541,2.541h3.812v1.906a.635.635,0,0,0,.635.635H55.13a.635.635,0,0,0,.635-.635V5.718A.635.635,0,0,0,55.13,5.082ZM30.988,2.224a.953.953,0,0,1,1.906,0v.318H30.988ZM29.082,3.812h3.812V5.718a.635.635,0,0,1-1.271,0V5.082H30.353v.635a1.906,1.906,0,0,0,3.812,0V3.812H51.953V33.036a1.271,1.271,0,1,1-2.541,0V31.13a.635.635,0,0,0-.635-.635H29.082ZM26.541,34.306a1.271,1.271,0,0,1-1.271-1.271V31.765H48.141v1.271a2.522,2.522,0,0,0,.341,1.271Zm27.953,2.541H31.624V35.577H50.683a2.541,2.541,0,0,0,2.541-2.541V6.353h1.271Z" transform="translate(-24)" fill="#002f57"/>
    </g>
  </g>
  <g id="Group_1571" data-name="Group 1571" transform="translate(9.529 22.235)">
    <g id="Group_1570" data-name="Group 1570">
      <rect id="Rectangle_1549" data-name="Rectangle 1549" width="1.271" height="1.271" fill="#002f57"/>
    </g>
  </g>
  <g id="Group_1573" data-name="Group 1573" transform="translate(12.071 22.235)">
    <g id="Group_1572" data-name="Group 1572">
      <rect id="Rectangle_1550" data-name="Rectangle 1550" width="13.977" height="1.271" fill="#002f57"/>
    </g>
  </g>
  <g id="Group_1575" data-name="Group 1575" transform="translate(6.988 24.777)">
    <g id="Group_1574" data-name="Group 1574">
      <rect id="Rectangle_1551" data-name="Rectangle 1551" width="19.059" height="1.271" fill="#002f57"/>
    </g>
  </g>
  <g id="Group_1577" data-name="Group 1577" transform="translate(6.988 27.318)">
    <g id="Group_1576" data-name="Group 1576">
      <rect id="Rectangle_1552" data-name="Rectangle 1552" width="16.518" height="1.271" fill="#002f57"/>
    </g>
  </g>
  <g id="Group_1583" data-name="Group 1583" transform="translate(1.271 8.894)">
    <g id="Group_1582" data-name="Group 1582">
      <rect id="Rectangle_1555" data-name="Rectangle 1555" width="1.271" height="8.259" fill="#002f57"/>
    </g>
  </g>
  <g id="Group_1585" data-name="Group 1585" transform="translate(1.271 6.353)">
    <g id="Group_1584" data-name="Group 1584">
      <rect id="Rectangle_1556" data-name="Rectangle 1556" width="1.271" height="1.271" fill="#002f57"/>
    </g>
  </g>
</svg>
