<svg xmlns="http://www.w3.org/2000/svg" width="36" height="39.273" viewBox="0 0 36 39.273">
  <path id="flag" d="M31.44,16.364l6.945-10.1a.654.654,0,0,0-.539-1.025H18.209V2.618a.654.654,0,0,0-.655-.655H3.809V.655A.655.655,0,1,0,2.5.655V38.618a.655.655,0,0,0,1.309,0V22.255h7.217a3.239,3.239,0,0,0-.672,1.964,3.276,3.276,0,0,0,3.273,3.273H37.846a.654.654,0,0,0,.539-1.025ZM3.809,3.273H16.9V20.945H3.809Zm9.818,22.909a1.964,1.964,0,1,1,0-3.927h3.927a.654.654,0,0,0,.655-.655V6.545H36.6l-6.5,9.448a.656.656,0,0,0,0,.742l6.5,9.447Z" transform="translate(-2.5)" fill="#535962"/>
</svg>
