<svg xmlns="http://www.w3.org/2000/svg" width="37.616" height="37.622" viewBox="0 0 37.616 37.622">
  <g id="Group_287" data-name="Group 287" transform="translate(0 0)">
    <g id="Group_286" data-name="Group 286">
      <path id="Path_298" data-name="Path 298" d="M33.9,18.847V3.762a1.883,1.883,0,0,0-1.881-1.881h-.627A1.883,1.883,0,0,0,29.508,0H18.85a2.492,2.492,0,0,0-1.881.867A2.492,2.492,0,0,0,15.088,0H4.431A1.883,1.883,0,0,0,2.55,1.881H1.923A1.883,1.883,0,0,0,.042,3.762v23.2a1.883,1.883,0,0,0,1.881,1.881h14.6A10.652,10.652,0,1,0,33.9,18.847ZM6.311,1.254h3.762V9.5L8.682,7.759a.627.627,0,0,0-.979,0L6.311,9.5ZM3.8,1.881a.628.628,0,0,1,.627-.627h.627V11.285a.627.627,0,0,0,1.116.392L8.192,9.154l2.018,2.523a.627.627,0,0,0,1.116-.392V1.254h3.762a1.255,1.255,0,0,1,1.254,1.254V22.957a2.472,2.472,0,0,0-1.314-.387H3.8Zm0,21.943H15.029a1.349,1.349,0,0,1,1.3,1.254H3.8Zm12.57,3.762H1.923a.628.628,0,0,1-.627-.627V3.762a.628.628,0,0,1,.627-.627H2.55V25.7a.627.627,0,0,0,.627.627h13.2c-.012.209-.032.415-.032.627S16.362,27.376,16.374,27.585ZM31.389,3.135h.627a.628.628,0,0,1,.627.627V17.933a10.63,10.63,0,0,0-1.254-.676V3.135ZM17.6,2.508A1.255,1.255,0,0,1,18.85,1.254H29.508a.628.628,0,0,1,.627.627V16.772A10.648,10.648,0,0,0,17.6,21.953V2.508ZM27,36.362a9.4,9.4,0,1,1,9.4-9.4A9.4,9.4,0,0,1,27,36.362Z" transform="translate(-0.042)" fill="#fff"/>
      <path id="Path_299" data-name="Path 299" d="M263.974,256a7.931,7.931,0,1,0,7.931,7.931A7.931,7.931,0,0,0,263.974,256Zm0,14.642a6.711,6.711,0,1,1,6.711-6.711A6.711,6.711,0,0,1,263.974,270.642Z" transform="translate(-236.729 -236.686)" fill="#fff"/>
      <path id="Path_300" data-name="Path 300" d="M359.663,295.372v-4.628a.61.61,0,1,0-1.22,0v4.881a.61.61,0,0,0,.179.431l3.05,3.05a.61.61,0,0,0,.863-.863Z" transform="translate(-332.018 -268.627)" fill="#fff"/>
    </g>
  </g>
</svg>
