<svg xmlns="http://www.w3.org/2000/svg" width="31.457" height="28.835" viewBox="0 0 31.457 28.835">
  <g id="Group_1453" data-name="Group 1453" transform="translate(-12285.083 5009.091)">
    <g id="post-it_1_" data-name="post-it (1)" transform="translate(12285.083 -5009.091)">
      <g id="Group_1444" data-name="Group 1444" transform="translate(15.073 25.706)">
        <g id="Group_1443" data-name="Group 1443">
          <path id="Path_8862" data-name="Path 8862" d="M254.09,439.764a.655.655,0,0,0-.714.591l-.107,1.151-7.2-.822a.655.655,0,1,0-.149,1.3l7.864.9a.7.7,0,0,0,.075,0,.657.657,0,0,0,.653-.594l.17-1.817A.657.657,0,0,0,254.09,439.764Z" transform="translate(-245.339 -439.76)" fill="#aeacac"/>
        </g>
      </g>
      <g id="Group_1446" data-name="Group 1446" transform="translate(0 3.931)">
        <g id="Group_1445" data-name="Group 1445">
          <path id="Path_8863" data-name="Path 8863" d="M15.806,86.8,3.355,85.331a.648.648,0,0,0-.729.57L.005,106.872a.658.658,0,0,0,.577.733l7.038.8a.734.734,0,0,0,.076,0,.655.655,0,0,0,.073-1.305l-6.38-.73L3.848,86.709,15.653,88.1a.642.642,0,0,0,.727-.574A.655.655,0,0,0,15.806,86.8Z" transform="translate(0 -85.326)" fill="#aeacac"/>
        </g>
      </g>
      <g id="Group_1448" data-name="Group 1448" transform="translate(18.35 4.588)">
        <g id="Group_1447" data-name="Group 1447">
          <path id="Path_8864" data-name="Path 8864" d="M303.07,96.215a.656.656,0,0,0-.927,0l-3.277,3.277a.655.655,0,0,0,.927.927l3.277-3.277A.656.656,0,0,0,303.07,96.215Z" transform="translate(-298.675 -96.023)" fill="#aeacac"/>
        </g>
      </g>
      <g id="Group_1450" data-name="Group 1450" transform="translate(5.243 3.933)">
        <g id="Group_1449" data-name="Group 1449">
          <path id="Path_8865" data-name="Path 8865" d="M111.552,106.9l-2.621-20.971a.659.659,0,0,0-.727-.57l-1.806.212a.655.655,0,1,0,.153,1.3l1.16-.136,2.459,19.666L88.555,108.87,86.711,89.2l16.007-1.882a.655.655,0,1,0-.153-1.3L85.922,87.977a.654.654,0,0,0-.575.712l1.966,20.97a.657.657,0,0,0,.653.594l.073,0,22.936-2.621a.658.658,0,0,0,.577-.733Z" transform="translate(-85.344 -85.351)" fill="#aeacac"/>
        </g>
      </g>
      <g id="Group_1452" data-name="Group 1452" transform="translate(20.971 0)">
        <g id="Group_1451" data-name="Group 1451">
          <path id="Path_8866" data-name="Path 8866" d="M344.624,21.34a3.277,3.277,0,1,0,3.277,3.277A3.28,3.28,0,0,0,344.624,21.34Zm0,5.243a1.966,1.966,0,1,1,1.966-1.966A1.968,1.968,0,0,1,344.624,26.583Z" transform="translate(-341.347 -21.34)" fill="#aeacac"/>
        </g>
      </g>
    </g>
    <rect id="Rectangle_1499" data-name="Rectangle 1499" width="15.77" height="1.169" rx="0.584" transform="translate(12295.512 -4994.126) rotate(-7)" fill="#aeacac"/>
    <rect id="Rectangle_1500" data-name="Rectangle 1500" width="12.085" height="1.169" rx="0.584" transform="translate(12295.814 -4991.709) rotate(-7)" fill="#aeacac"/>
    <rect id="Rectangle_1501" data-name="Rectangle 1501" width="6.832" height="1.169" rx="0.584" transform="translate(12296.261 -4989.388) rotate(-7)" fill="#aeacac"/>
  </g>
</svg>
