<svg xmlns="http://www.w3.org/2000/svg" width="39.928" height="39.929" viewBox="0 0 39.928 39.929">
  <g id="instagram-logo" transform="translate(0)">
    <path id="Path_184" data-name="Path 184" d="M28.909,0H11.019A11.031,11.031,0,0,0,0,11.019V28.909A11.031,11.031,0,0,0,11.019,39.928H28.909A11.031,11.031,0,0,0,39.928,28.909V11.019A11.031,11.031,0,0,0,28.909,0Zm7.477,28.909a7.485,7.485,0,0,1-7.476,7.476H11.019a7.484,7.484,0,0,1-7.476-7.476V11.019a7.485,7.485,0,0,1,7.476-7.476H28.909a7.485,7.485,0,0,1,7.476,7.476V28.909Z" fill="#fff"/>
    <path id="Path_185" data-name="Path 185" d="M51.256,40.97A10.288,10.288,0,1,0,61.545,51.258,10.3,10.3,0,0,0,51.256,40.97Zm0,17.034A6.746,6.746,0,1,1,58,51.258,6.753,6.753,0,0,1,51.256,58Z" transform="translate(-31.292 -31.294)" fill="#fff"/>
    <path id="Path_186" data-name="Path 186" d="M121.519,28.251a2.6,2.6,0,1,0,1.837.76A2.608,2.608,0,0,0,121.519,28.251Z" transform="translate(-90.835 -21.579)" fill="#fff"/>
  </g>
</svg>
