<svg xmlns="http://www.w3.org/2000/svg" width="16.262" height="15.033" viewBox="0 0 16.262 15.033">
  <path id="like" d="M7.581,4.479A3.989,3.989,0,0,1,11.239,2a4.223,4.223,0,0,1,3.99,4.131A4.111,4.111,0,0,1,15.1,7.693a6.9,6.9,0,0,1-2.1,3.509l-5.414,4.83L2.258,11.2a6.9,6.9,0,0,1-2.1-3.509A4.111,4.111,0,0,1,.024,6.131,4.223,4.223,0,0,1,4.014,2,3.866,3.866,0,0,1,7.581,4.479Z" transform="translate(0.5 -1.5)" fill="none" stroke="#8d8e8e" stroke-linecap="round" stroke-linejoin="round" stroke-width="1"/>
</svg>
