<svg xmlns="http://www.w3.org/2000/svg" width="34.689" height="34.115" viewBox="0 0 34.689 34.115">
  <g id="location" transform="translate(0.144 -5.086)">
    <g id="Group_2668" data-name="Group 2668" transform="translate(0 5.246)">
      <g id="Group_2667" data-name="Group 2667">
        <path id="Path_12875" data-name="Path 12875" d="M90.892,28.509c1.417,2,2.831,3.784,3.769,4.935.136.167.264.323.388.472H92.22a.573.573,0,1,0,0,1.147h9.174a.573.573,0,0,0,0-1.147H98.565l.389-.472c.937-1.147,2.351-2.937,3.768-4.935a50.376,50.376,0,0,0,3.788-6.1,13.409,13.409,0,0,0,1.765-5.673,11.459,11.459,0,0,0-3.358-8.119.573.573,0,1,0-.811.81,10.317,10.317,0,0,1,3.023,7.309,12.36,12.36,0,0,1-1.64,5.153,49.239,49.239,0,0,1-3.7,5.963c-1.4,1.972-2.8,3.738-3.721,4.874-.308.377-.585.711-.821.993a.581.581,0,0,1-.874,0c-.236-.282-.513-.616-.821-.993-.926-1.135-2.323-2.9-3.721-4.874a49.239,49.239,0,0,1-3.7-5.963,12.343,12.343,0,0,1-1.64-5.153,10.323,10.323,0,0,1,14.34-9.524.574.574,0,0,0,.448-1.056A11.472,11.472,0,0,0,85.34,16.731,13.43,13.43,0,0,0,87.1,22.407,50.341,50.341,0,0,0,90.892,28.509Z" transform="translate(-79.606 -5.246)" fill="#002f57" stroke="#002f57" stroke-width="0.25"/>
        <path id="Path_12876" data-name="Path 12876" d="M176.394,83.232a.573.573,0,1,0,0-1.147,5.734,5.734,0,1,0,4.054,1.679.573.573,0,1,0-.811.811,4.587,4.587,0,1,1-3.243-1.343Z" transform="translate(-159.193 -76.922)" fill="#002f57" stroke="#002f57" stroke-width="0.25"/>
        <path id="Path_12877" data-name="Path 12877" d="M34.186,370.891l-3.526-6.307a1.782,1.782,0,0,0-1.56-.9H25.013a.573.573,0,1,0,0,1.147H29.1a.636.636,0,0,1,.56.313l3.525,6.307a.516.516,0,0,1-.005.53.631.631,0,0,1-.555.3H1.778a.631.631,0,0,1-.554-.3.516.516,0,0,1-.005-.53l3.525-6.307a.635.635,0,0,1,.56-.313H9.389a.573.573,0,1,0,0-1.147H5.3a1.783,1.783,0,0,0-1.561.9L.216,370.891a1.663,1.663,0,0,0,.018,1.669,1.766,1.766,0,0,0,1.544.87H32.625a1.766,1.766,0,0,0,1.543-.87A1.663,1.663,0,0,0,34.186,370.891Z" transform="translate(0 -339.6)" fill="#002f57" stroke="#002f57" stroke-width="0.25"/>
      </g>
    </g>
  </g>
</svg>
