<svg xmlns="http://www.w3.org/2000/svg" width="25.831" height="30.998" viewBox="0 0 25.831 30.998">
  <g id="notification_1_" data-name="notification (1)" transform="translate(-42.676)" opacity="0.745">
    <g id="Group_34" data-name="Group 34" transform="translate(42.675)">
      <g id="Group_33" data-name="Group 33">
        <path id="Path_53" data-name="Path 53" d="M68.414,26.145l-2.218-3.7A10.98,10.98,0,0,1,64.631,16.8V13.562A9.053,9.053,0,0,0,58.173,4.9V2.583a2.583,2.583,0,0,0-5.166,0V4.9a9.053,9.053,0,0,0-6.458,8.66V16.8a10.987,10.987,0,0,1-1.564,5.648l-2.218,3.7a.647.647,0,0,0,.553.979H67.86a.646.646,0,0,0,.554-.978Z" transform="translate(-42.675)" fill="#fff"/>
      </g>
    </g>
    <g id="Group_36" data-name="Group 36" transform="translate(51.523 28.415)">
      <g id="Group_35" data-name="Group 35">
        <path id="Path_54" data-name="Path 54" d="M188.815,469.333a4.493,4.493,0,0,0,8.134,0Z" transform="translate(-188.815 -469.333)" fill="#fff"/>
      </g>
    </g>
  </g>
</svg>
