<svg xmlns="http://www.w3.org/2000/svg" width="37.616" height="37.616" viewBox="0 0 37.616 37.616">
  <g id="online-course_1_" data-name="online-course (1)" transform="translate(0 0)">
    <g id="Group_41" data-name="Group 41">
      <path id="Path_68" data-name="Path 68" d="M33.854,14.749V3.762a1.883,1.883,0,0,0-1.881-1.881h-.627A1.883,1.883,0,0,0,29.466,0H18.808a2.492,2.492,0,0,0-1.881.867A2.492,2.492,0,0,0,15.046,0H4.389A1.883,1.883,0,0,0,2.508,1.881H1.881A1.883,1.883,0,0,0,0,3.762v23.2a1.883,1.883,0,0,0,1.881,1.881H22.57v3.135a5.649,5.649,0,0,0,5.642,5.642h3.762a5.649,5.649,0,0,0,5.642-5.642V20.062A5.647,5.647,0,0,0,33.854,14.749ZM31.347,3.135h.627a.628.628,0,0,1,.627.627V14.456a5.639,5.639,0,0,0-.627-.037h-.627ZM6.269,1.254h3.762V9.5L8.64,7.759a.627.627,0,0,0-.979,0L6.269,9.5V1.254Zm-2.508.627a.628.628,0,0,1,.627-.627h.627V11.285a.627.627,0,0,0,1.116.392L8.15,9.154l2.018,2.523a.627.627,0,0,0,1.116-.392V1.254h3.762A1.255,1.255,0,0,1,16.3,2.508V22.957a2.472,2.472,0,0,0-1.314-.387H3.762Zm0,21.943H14.987a1.349,1.349,0,0,1,1.3,1.254H3.762ZM22.57,27.585H1.881a.628.628,0,0,1-.627-.627V3.762a.628.628,0,0,1,.627-.627h.627V25.7a.627.627,0,0,0,.627.627H22.57Zm0-2.508h-5a1.351,1.351,0,0,1,1.3-1.254h3.7Zm0-2.508h-3.7a2.477,2.477,0,0,0-1.317.388V2.508a1.255,1.255,0,0,1,1.254-1.254H29.466a.628.628,0,0,1,.627.627V14.419H28.212a5.649,5.649,0,0,0-5.642,5.642Zm6.9-6.9v8.15H23.823V20.062a4.393,4.393,0,0,1,4.389-4.389Zm6.9,16.3a4.393,4.393,0,0,1-4.389,4.389H28.212a4.393,4.393,0,0,1-4.389-4.389v-6.9H36.362v6.9Zm0-8.15H30.72v-8.15h1.254a4.393,4.393,0,0,1,4.389,4.389Z" fill="#fff"/>
      <path id="Path_69" data-name="Path 69" d="M76.309,10.555a1.055,1.055,0,0,1,.824.4l2.343,2.928V0H73.143V13.879l2.342-2.928A1.055,1.055,0,0,1,76.309,10.555Z" transform="translate(-67.385 1.501)" fill="#fff"/>
    </g>
    <g id="Group_2354" data-name="Group 2354" transform="translate(0 0)">
      <path id="Path_68-2" data-name="Path 68" d="M33.854,14.749V3.762a1.883,1.883,0,0,0-1.881-1.881h-.627A1.883,1.883,0,0,0,29.466,0H18.808a2.492,2.492,0,0,0-1.881.867A2.492,2.492,0,0,0,15.046,0H4.389A1.883,1.883,0,0,0,2.508,1.881H1.881A1.883,1.883,0,0,0,0,3.762v23.2a1.883,1.883,0,0,0,1.881,1.881H22.57v3.135a5.649,5.649,0,0,0,5.642,5.642h3.762a5.649,5.649,0,0,0,5.642-5.642V20.062A5.647,5.647,0,0,0,33.854,14.749ZM31.347,3.135h.627a.628.628,0,0,1,.627.627V14.456a5.639,5.639,0,0,0-.627-.037h-.627ZM6.269,1.254h3.762V9.5L8.64,7.759a.627.627,0,0,0-.979,0L6.269,9.5V1.254Zm-2.508.627a.628.628,0,0,1,.627-.627h.627V11.285a.627.627,0,0,0,1.116.392L8.15,9.154l2.018,2.523a.627.627,0,0,0,1.116-.392V1.254h3.762A1.255,1.255,0,0,1,16.3,2.508V22.957a2.472,2.472,0,0,0-1.314-.387H3.762Zm0,21.943H14.987a1.349,1.349,0,0,1,1.3,1.254H3.762ZM22.57,27.585H1.881a.628.628,0,0,1-.627-.627V3.762a.628.628,0,0,1,.627-.627h.627V25.7a.627.627,0,0,0,.627.627H22.57Zm0-2.508h-5a1.351,1.351,0,0,1,1.3-1.254h3.7Zm0-2.508h-3.7a2.477,2.477,0,0,0-1.317.388V2.508a1.255,1.255,0,0,1,1.254-1.254H29.466a.628.628,0,0,1,.627.627V14.419H28.212a5.649,5.649,0,0,0-5.642,5.642Zm6.9-6.9v8.15H23.823V20.062a4.393,4.393,0,0,1,4.389-4.389Zm6.9,16.3a4.393,4.393,0,0,1-4.389,4.389H28.212a4.393,4.393,0,0,1-4.389-4.389v-6.9H36.362v6.9Zm0-8.15H30.72v-8.15h1.254a4.393,4.393,0,0,1,4.389,4.389Z" fill="#fff"/>
      <path id="Path_69-2" data-name="Path 69" d="M76.309,10.555a1.055,1.055,0,0,1,.824.4l2.343,2.928V0H73.143V13.879l2.342-2.928A1.055,1.055,0,0,1,76.309,10.555Z" transform="translate(-67.385 1.501)" fill="#fff"/>
    </g>
  </g>
</svg>
