<svg xmlns="http://www.w3.org/2000/svg" width="38.015" height="38.015" viewBox="0 0 38.015 38.015">
  <g id="open-book" transform="translate(0 0)">
    <g id="Group_289" data-name="Group 289" transform="translate(0)">
      <g id="Group_288" data-name="Group 288">
        <path id="Path_301" data-name="Path 301" d="M196.6,153.6a8.87,8.87,0,1,0,8.87,8.87A8.87,8.87,0,0,0,196.6,153.6Zm0,16.472a7.6,7.6,0,1,1,7.6-7.6A7.6,7.6,0,0,1,196.6,170.072Z" transform="translate(-173.796 -142.196)" fill="#fff"/>
        <path id="Path_302" data-name="Path 302" d="M37.456,34.771l-6.513-6.518a11.362,11.362,0,0,0,3.271-7.979V3.8a1.9,1.9,0,0,0-1.9-1.9H31.68a1.9,1.9,0,0,0-1.9-1.9H19.009a2.518,2.518,0,0,0-1.9.876A2.518,2.518,0,0,0,15.207,0H4.437a1.9,1.9,0,0,0-1.9,1.9H1.9A1.9,1.9,0,0,0,0,3.8V27.243a1.9,1.9,0,0,0,1.9,1.9H15.658A11.322,11.322,0,0,0,27.821,30.5l6.949,6.949a1.9,1.9,0,1,0,2.686-2.68ZM31.68,3.168h.634a.634.634,0,0,1,.634.634V15.073a11.431,11.431,0,0,0-1.267-1.951V3.168ZM17.742,2.534a1.269,1.269,0,0,1,1.267-1.267h10.77a.634.634,0,0,1,.634.634v9.9a11.311,11.311,0,0,0-12.671-1.725V2.534ZM6.338,1.267h3.8V9.6L8.733,7.841a.634.634,0,0,0-.99,0L6.338,9.6V1.267ZM3.8,1.9a.634.634,0,0,1,.634-.634H5.07V11.4a.634.634,0,0,0,1.129.4L8.238,9.25,10.277,11.8a.634.634,0,0,0,1.129-.4V1.267h3.8a1.269,1.269,0,0,1,1.267,1.267V10.8A11.336,11.336,0,0,0,11.7,22.808H3.8Zm0,22.174h8.268a11.327,11.327,0,0,0,.538,1.267H3.8Zm-1.9,3.8a.634.634,0,0,1-.634-.634V3.8A.634.634,0,0,1,1.9,3.168h.634V25.976a.633.633,0,0,0,.634.634H13.334a11.469,11.469,0,0,0,1,1.267H1.9ZM22.81,30.411A10.137,10.137,0,1,1,32.947,20.274,10.148,10.148,0,0,1,22.81,30.411Zm13.747,6.15h0a.63.63,0,0,1-.888,0l-6.7-6.7a11.449,11.449,0,0,0,1.04-.748l6.555,6.561a.617.617,0,0,1-.006.891Z" transform="translate(-0.002)" fill="#fff"/>
      </g>
    </g>
  </g>
</svg>
