<svg xmlns="http://www.w3.org/2000/svg" width="43.812" height="43.789" viewBox="0 0 43.812 43.789">
  <path id="Path_35" data-name="Path 35" d="M65.043,58.981h5.685a3.864,3.864,0,1,0,0-7.727H65.043L76.457,39.817a3.887,3.887,0,0,0,0-5.485h0a3.887,3.887,0,0,0-5.485,0L59.558,45.746V40.084a3.864,3.864,0,1,0-7.727,0v5.685L40.417,34.355a3.887,3.887,0,0,0-5.485,0h0a3.887,3.887,0,0,0,0,5.485L46.346,51.253H40.684a3.864,3.864,0,1,0,0,7.727h5.685L34.955,70.372a3.887,3.887,0,0,0,0,5.485h0a3.887,3.887,0,0,0,5.485,0L51.853,64.443v5.685a3.864,3.864,0,0,0,7.727,0V64.443L70.994,75.857a3.887,3.887,0,0,0,5.485,0h0a3.887,3.887,0,0,0,0-5.485Zm-9.348,0a3.864,3.864,0,1,1,3.864-3.864A3.867,3.867,0,0,1,55.695,58.981Z" transform="translate(-33.8 -33.199)" fill="#fff"/>
</svg>
