<svg xmlns="http://www.w3.org/2000/svg" width="35.478" height="35.577" viewBox="0 0 35.478 35.577">
  <path id="Path_9075" data-name="Path 9075" d="M35.825,24.562a1.768,1.768,0,0,0-1.706-1.237h-.784V4.187a.6.6,0,0,0-.6-.6H24.364V.6a.6.6,0,0,0-.6-.6H1.039a.6.6,0,0,0-.6.6V31.7a.6.6,0,0,0,.6.6H20.8l-.3.922a1.794,1.794,0,0,0,2.762,2.008L26.4,32.943a.6.6,0,0,1,.711,0l3.141,2.285a1.8,1.8,0,0,0,2.762-2.009l-1.2-3.7a.592.592,0,0,1,.219-.663l3.147-2.285a1.773,1.773,0,0,0,.648-2.01ZM32.139,4.785v18.54H30.231a.594.594,0,0,1-.185-.03.609.609,0,0,1-.383-.382l-1.2-3.7a1.794,1.794,0,0,0-3.409,0l-.688,2.113V15.55h4.785a.6.6,0,1,0,0-1.2H24.364V11.962h4.785a.6.6,0,1,0,0-1.2H24.364V8.373h4.785a.6.6,0,1,0,0-1.2H24.364V4.785ZM1.637,31.1V1.2H23.168V23.325H19.394a1.794,1.794,0,0,0-1.057,3.247l3.145,2.284a.593.593,0,0,1,.22.666L21.189,31.1Zm32.834-5.5-3.146,2.285a1.784,1.784,0,0,0-.653,2l1.2,3.7a.6.6,0,0,1-.921.671l-3.143-2.286a1.809,1.809,0,0,0-2.113,0l-3.139,2.285a.6.6,0,0,1-.922-.67l1.2-3.694a1.786,1.786,0,0,0-.654-2l-3.143-2.282a.6.6,0,0,1,.353-1.084h3.888A1.672,1.672,0,0,0,24,24.364l.011-.006.011,0c.008,0,.014-.011.023-.015a1.776,1.776,0,0,0,.939-1.057l1.2-3.7a.6.6,0,0,1,1.136,0l1.2,3.7a1.8,1.8,0,0,0,1.7,1.236h3.888a.6.6,0,0,1,.353,1.084Zm0,0" transform="translate(-0.441 0)" fill="#fff"/>
</svg>
