<svg xmlns="http://www.w3.org/2000/svg" width="37" height="37" viewBox="0 0 37 37">
  <path id="Path_57" data-name="Path 57" d="M18.748,0A18.5,18.5,0,1,1,0,18.251,18.5,18.5,0,0,1,18.748,0ZM18.8,29.761l.1,0a2.693,2.693,0,0,0-.064-5.385l-.091,0a2.693,2.693,0,1,0,.053,5.385ZM12.185,16.626A12.231,12.231,0,0,0,14.394,18.6l1.129.779a3.069,3.069,0,0,1,1.134,1.381,2.859,2.859,0,0,1,.175,1.158l0,.181h4.311l-.012-.365c-.053-1.5-.09-2.381-.711-3.11A18.306,18.306,0,0,0,17.2,16.041a3.4,3.4,0,0,1-.761-.779,2.74,2.74,0,0,1-.653-1.6,3.113,3.113,0,0,1,.592-1.84,2.464,2.464,0,0,1,2.133-.8,2.325,2.325,0,0,1,2.155,1,4,4,0,0,1,.653,2.152v.184h4.444l-.008-.192c-.115-2.722-1.086-4.683-2.887-5.826a7.6,7.6,0,0,0-4.181-1.1A9.026,9.026,0,0,0,13.3,8.792a5.386,5.386,0,0,0-2.182,4.648A5.317,5.317,0,0,0,12.185,16.626Z" transform="translate(-0.001 0)" fill="#fff"/>
</svg>
