<svg xmlns="http://www.w3.org/2000/svg" width="19.299" height="16.852" viewBox="0 0 19.299 16.852">
  <g id="picture_1_" data-name="picture (1)" transform="translate(0.25 0.25)">
    <path id="Path_10860" data-name="Path 10860" d="M18.475,6H.324A.341.341,0,0,0,0,6.355V22a.341.341,0,0,0,.324.355H18.475A.341.341,0,0,0,18.8,22V6.355A.341.341,0,0,0,18.475,6Zm-.324,15.641H.648V6.711h17.5Z" transform="translate(0 -6)" fill="#327bf9" stroke="#327bf9" stroke-width="0.5"/>
    <path id="Path_10861" data-name="Path 10861" d="M12.411,20.959a1.98,1.98,0,1,0-1.98-1.98A1.982,1.982,0,0,0,12.411,20.959Zm0-3.248a1.269,1.269,0,1,1-1.269,1.269A1.27,1.27,0,0,1,12.411,17.711Z" transform="translate(-7.128 -13.09)" fill="#327bf9" stroke="#327bf9" stroke-width="0.5"/>
    <path id="Path_10862" data-name="Path 10862" d="M6.316,31.176a.3.3,0,0,0,.209-.089l5.168-5.105,3.264,3.662a.293.293,0,0,0,.448,0,.386.386,0,0,0,0-.5l-1.523-1.709,2.908-3.574,3.567,3.67a.293.293,0,0,0,.448-.022.386.386,0,0,0-.02-.5l-3.8-3.91a.293.293,0,0,0-.448.022l-3.1,3.813-1.5-1.686a.293.293,0,0,0-.433-.016L6.107,30.554a.387.387,0,0,0-.029.5A.3.3,0,0,0,6.316,31.176Z" transform="translate(-3.867 -16.957)" fill="#327bf9" stroke="#327bf9" stroke-width="0.5"/>
  </g>
</svg>
