<svg id="playstore" xmlns="http://www.w3.org/2000/svg" xmlns:xlink="http://www.w3.org/1999/xlink" width="244.06" height="116.936" viewBox="0 0 244.06 116.936">
  <defs>
    <linearGradient id="linear-gradient" x1="0.915" y1="6.617" x2="-0.384" y2="5.947" gradientUnits="objectBoundingBox">
      <stop offset="0" stop-color="#00a0ff"/>
      <stop offset="0.01" stop-color="#00a1ff"/>
      <stop offset="0.26" stop-color="#00beff"/>
      <stop offset="0.51" stop-color="#00d2ff"/>
      <stop offset="0.76" stop-color="#00dfff"/>
      <stop offset="1" stop-color="#00e3ff"/>
    </linearGradient>
    <linearGradient id="linear-gradient-2" x1="1.077" y1="17.089" x2="-1.306" y2="17.089" gradientUnits="objectBoundingBox">
      <stop offset="0" stop-color="#ffe000"/>
      <stop offset="0.41" stop-color="#ffbd00"/>
      <stop offset="0.78" stop-color="orange"/>
      <stop offset="1" stop-color="#ff9c00"/>
    </linearGradient>
    <linearGradient id="linear-gradient-3" x1="0.862" y1="10.858" x2="-0.501" y2="9.09" gradientUnits="objectBoundingBox">
      <stop offset="0" stop-color="#ff3a44"/>
      <stop offset="1" stop-color="#c31162"/>
    </linearGradient>
    <linearGradient id="linear-gradient-4" x1="-0.188" y1="13.578" x2="0.421" y2="12.788" gradientUnits="objectBoundingBox">
      <stop offset="0" stop-color="#32a071"/>
      <stop offset="0.07" stop-color="#2da771"/>
      <stop offset="0.48" stop-color="#15cf74"/>
      <stop offset="0.8" stop-color="#06e775"/>
      <stop offset="1" stop-color="#00f076"/>
    </linearGradient>
  </defs>
  <path id="Path_164" data-name="Path 164" d="M0,0H244.06V116.935H0Z" fill="none"/>
  <rect id="Rectangle_109" data-name="Rectangle 109" width="212.568" height="85.443" rx="14" transform="translate(15.746 15.746)"/>
  <path id="Path_165" data-name="Path 165" d="M214.7,11.709c3.652,0,6.613,4.017,6.613,8.972V84.763c0,4.955-2.961,8.972-6.613,8.972H17.873c-3.652,0-6.613-4.017-6.613-8.972V20.68c0-4.955,2.961-8.972,6.613-8.972H214.7m0-1.709H17.873C13.525,10,10,14.782,10,20.68V84.763c0,5.9,3.525,10.68,7.873,10.68H214.7c4.348,0,7.873-4.782,7.873-10.68V20.68C222.568,14.782,219.044,10,214.7,10Z" transform="translate(5.746 5.746)" fill="#a6a6a6"/>
  <path id="Path_166" data-name="Path 166" d="M93.807,34.482a6.692,6.692,0,1,0,6.723,6.692,6.6,6.6,0,0,0-6.723-6.692Zm0,10.754a4.062,4.062,0,1,1,3.779-4.062,3.873,3.873,0,0,1-3.779,4.062ZM79.148,34.482a6.692,6.692,0,1,0,6.708,6.692,6.6,6.6,0,0,0-6.723-6.692Zm0,10.754a4.062,4.062,0,1,1,3.763-4.062,3.873,3.873,0,0,1-3.779,4.062ZM61.686,36.545v2.834h6.8a5.936,5.936,0,0,1-1.575,3.574,6.96,6.96,0,0,1-5.243,2.078,7.558,7.558,0,1,1,0-15.116,7.243,7.243,0,0,1,5.149,2.031l2-2A9.9,9.9,0,0,0,61.686,27a10.408,10.408,0,1,0,0,20.8A9.192,9.192,0,0,0,71.4,38.245a9.241,9.241,0,0,0-.157-1.779Zm71.344,2.2A6.187,6.187,0,0,0,121,41.174a6.55,6.55,0,0,0,6.645,6.692,6.66,6.66,0,0,0,5.574-2.96l-2.283-1.575a3.826,3.826,0,0,1-3.291,1.858,3.4,3.4,0,0,1-3.244-2.031l8.959-3.7ZM123.9,40.985a3.669,3.669,0,0,1,3.5-3.9,2.6,2.6,0,0,1,2.488,1.417Zm-7.275,6.487h2.944V27.79h-2.944ZM111.8,35.978h-.11a4.724,4.724,0,0,0-3.527-1.575,6.708,6.708,0,0,0,0,13.4,4.566,4.566,0,0,0,3.527-1.575h.094v.96c0,2.567-1.37,3.936-3.574,3.936a3.7,3.7,0,0,1-3.37-2.378l-2.567,1.071a6.377,6.377,0,0,0,5.936,3.952c3.448,0,6.3-2.031,6.3-6.975V34.876H111.8Zm-3.37,9.259a4.078,4.078,0,0,1,0-8.125,3.779,3.779,0,0,1,3.574,4.062,3.747,3.747,0,0,1-3.59,4.062ZM146.823,27.79h-7.038V47.472h2.944V40.009h4.11a6.125,6.125,0,1,0,0-12.219Zm0,9.447h-4.11V30.53h4.173a3.377,3.377,0,0,1,0,6.755ZM164.978,34.4a5.511,5.511,0,0,0-5.243,3.007l2.614,1.086a2.787,2.787,0,0,1,2.677-1.449,2.834,2.834,0,0,1,3.149,2.535v.2a6.5,6.5,0,0,0-3.07-.756c-2.819,0-5.668,1.575-5.668,4.425a4.551,4.551,0,0,0,4.881,4.33A4.141,4.141,0,0,0,168.1,45.9h.094v1.575h2.834V39.9c0-3.448-2.614-5.448-5.968-5.448Zm-.362,10.786c-.96,0-2.3-.488-2.3-1.669,0-1.575,1.669-2.094,3.149-2.094a5.228,5.228,0,0,1,2.677.661,3.558,3.558,0,0,1-3.448,3.149Zm16.738-10.314-3.37,8.534h-.094l-3.5-8.534h-3.149l5.243,11.935L173.5,53.44h3.07l8.062-18.564Zm-26.469,12.6h2.944V27.79h-2.944Z" transform="translate(29.231 29.613)" fill="#fff"/>
  <path id="Path_167" data-name="Path 167" d="M20.706,17.58a3.149,3.149,0,0,0-.724,2.2v34.83a3.149,3.149,0,0,0,.724,2.2l.11.11L40.326,37.436v-.457L20.817,17.47Z" transform="translate(11.478 21.268)" fill="url(#linear-gradient)"/>
  <path id="Path_168" data-name="Path 168" d="M39.356,39.2,32.9,32.7v-.457l6.456-6.519.142.079,7.731,4.393c2.2,1.244,2.2,3.291,0,4.551l-7.7,4.377Z" transform="translate(18.904 26.008)" fill="url(#linear-gradient-2)"/>
  <path id="Path_169" data-name="Path 169" d="M46.7,36.645,40.059,30,20.44,49.619a2.567,2.567,0,0,0,3.275.094l23-13.069" transform="translate(11.744 31.533)" fill="url(#linear-gradient-3)"/>
  <path id="Path_170" data-name="Path 170" d="M46.71,30.748l-23-13.069a2.567,2.567,0,0,0-3.275.094L40.065,37.392Z" transform="translate(11.739 18.01)" fill="url(#linear-gradient-4)"/>
  <path id="Path_171" data-name="Path 171" d="M46.515,34.13,23.7,47.12a2.63,2.63,0,0,1-3.149,0l-.11.11.11.11a2.614,2.614,0,0,0,3.149,0l23-13.069Z" transform="translate(11.744 34.56)" opacity="0.2"/>
  <path id="Path_172" data-name="Path 172" d="M20.706,49.4a3.149,3.149,0,0,1-.724-2.2v.236a3.149,3.149,0,0,0,.724,2.2l.11-.11ZM54.654,32.047,46.781,36.5l.142.142,7.731-4.377A2.755,2.755,0,0,0,56.229,30a2.929,2.929,0,0,1-1.575,2.047Z" transform="translate(11.478 31.414)" opacity="0.12"/>
  <path id="Path_173" data-name="Path 173" d="M23.969,17.892,54.658,35.339a2.929,2.929,0,0,1,1.575,2.047,2.756,2.756,0,0,0-1.575-2.267L23.969,17.672c-2.2-1.244-4-.2-4,2.315v.236c.047-2.535,1.811-3.574,4-2.33Z" transform="translate(11.474 18.02)" fill="#fff" opacity="0.25"/>
  <path id="Path_174" data-name="Path 174" d="M81.562,28.365a3.149,3.149,0,0,1-2.252-.8,3.307,3.307,0,0,1-.835-2.409,6.582,6.582,0,0,1,0-.945,8.188,8.188,0,0,1,.268-1.291l.63.157a5.2,5.2,0,0,0-.189,1.228,2.85,2.85,0,0,0,.63,1.968,2.252,2.252,0,0,0,1.764.709,5.779,5.779,0,0,0,2.567-.63,3.464,3.464,0,0,0,1.7-1.575,10.6,10.6,0,0,1-1.134-3.307,1.386,1.386,0,0,1,.252-.819,2.834,2.834,0,0,1,.882-.74,11.471,11.471,0,0,0,.394,2.236,2.787,2.787,0,0,0,1.26.283.126.126,0,0,1,.142.142V23.61a.126.126,0,0,1-.142.142,2.5,2.5,0,0,1-1.055-.2v.5a3.511,3.511,0,0,1-.677,2.031,5.086,5.086,0,0,1-1.858,1.575,5.165,5.165,0,0,1-2.346.709Zm1.386-9.447a8.8,8.8,0,0,1-1.118,1.275,10.723,10.723,0,0,1-1.244-1.118q.882-.882,1.212-1.275a14.167,14.167,0,0,0,1.134,1.1Z" transform="translate(45.081 17.73)" fill="#fff" stroke="#fff" stroke-miterlimit="10" stroke-width="0.2"/>
  <path id="Path_175" data-name="Path 175" d="M84.332,24.331a.126.126,0,0,1-.142-.142V23.15a.126.126,0,0,1,.142-.142,1.889,1.889,0,0,0,1.118-.315,2.567,2.567,0,0,0,.787-.976l.346-.693a6.5,6.5,0,0,1,1.307-2,2.031,2.031,0,0,1,1.4-.583,1.37,1.37,0,0,1,1.008.614,4.724,4.724,0,0,1,.819,1.575,6.187,6.187,0,0,1,.315,1.874,2.128,2.128,0,0,1-.866,1.8,9.305,9.305,0,0,1-2.22-.283,7.416,7.416,0,0,1-1.984-.677,2.3,2.3,0,0,1-2.031,1.039Zm5.826-1.323a6.3,6.3,0,0,0-.409-2.063q-.378-.976-.74-.976a1.086,1.086,0,0,0-.614.189,2.362,2.362,0,0,0-.583.6,12.079,12.079,0,0,0-.772,1.37,8.314,8.314,0,0,0,3.149.882Zm10.707.646a11.761,11.761,0,0,1-1.307-.157,5.353,5.353,0,0,1-.74-.236,5.985,5.985,0,0,1-.787-.378,2.771,2.771,0,0,1-.614-.441.6.6,0,0,1-.2-.394,2.472,2.472,0,0,1,.236-.787,7.569,7.569,0,0,1,.378-.819,3.842,3.842,0,0,1,1.149-1.118,8.975,8.975,0,0,1,1.874-1.023v-.472a6.724,6.724,0,0,1,1.26-.9l.157,5.621a3.511,3.511,0,0,0,1.8.457.126.126,0,0,1,.142.142v1.039a.126.126,0,0,1-.142.142,3.244,3.244,0,0,1-1.7-.394,1.575,1.575,0,0,1-.756-1.118v-.362Zm-2.8-2.409a3.59,3.59,0,0,0,1.575.787,8.991,8.991,0,0,0,1.874.2l-.441-2.787A6.3,6.3,0,0,0,98.062,21.244Z" transform="translate(48.374 16.608)" fill="#fff" stroke="#fff" stroke-miterlimit="10" stroke-width="0.2"/>
  <path id="Path_176" data-name="Path 176" d="M101.511,19.12a.709.709,0,0,1,.425.142q-.315.756-.551,1.26a4.728,4.728,0,0,1-.283.567,4.22,4.22,0,0,0,1.086.52,3.952,3.952,0,0,0,1.1.142.126.126,0,0,1,.142.142v1.039a.126.126,0,0,1-.142.142,4,4,0,0,1-2.74-.992l-.283.378a3.055,3.055,0,0,1-1.26.409,10.566,10.566,0,0,1-2.126.22.126.126,0,0,1-.142-.142V21.907a.126.126,0,0,1,.142-.142,15.036,15.036,0,0,0,1.842-.11,2.425,2.425,0,0,0,1.055-.315,4.614,4.614,0,0,0,.913-1.386l.3-.551a.551.551,0,0,1,.52-.283Zm-1.575,6.125a6.771,6.771,0,0,1-1.023,1.181,9.228,9.228,0,0,1-1.149-1.055q.457-.425,1.118-1.165Zm2.614-.252a6.755,6.755,0,0,1-1.039,1.181,8.533,8.533,0,0,1-1.149-1.055q.394-.362,1.118-1.165Z" transform="translate(55.585 18.742)" fill="#fff" stroke="#fff" stroke-miterlimit="10" stroke-width="0.2"/>
  <path id="Path_177" data-name="Path 177" d="M101.122,25.87a.126.126,0,0,1-.142-.142V24.689a.126.126,0,0,1,.142-.142,4.251,4.251,0,0,0,1.89-.441q-.236-1.827-.551-6.582l-.173-2.315a6.975,6.975,0,0,1,1.165-.96q.11,2.378.173,7.464v2.378a3.511,3.511,0,0,0,1.8.457c.094,0,.157,0,.157.142v1.039c0,.094,0,.142-.157.142a2.96,2.96,0,0,1-1.984-.614,4.9,4.9,0,0,1-1.134.488,5.118,5.118,0,0,1-1.181.126Z" transform="translate(58.021 14.271)" fill="#fff" stroke="#fff" stroke-miterlimit="10" stroke-width="0.2"/>
  <path id="Path_178" data-name="Path 178" d="M103.952,25.87a.126.126,0,0,1-.142-.142V24.689a.126.126,0,0,1,.142-.142h2.157a2.52,2.52,0,0,1-.724-.74,1.811,1.811,0,0,1-.315-1.008,3.5,3.5,0,0,1,.394-1.575,3.763,3.763,0,0,1,1.039-1.307,2.126,2.126,0,0,1,1.323-.5,2.378,2.378,0,0,1,1.149.3,7.574,7.574,0,0,1,1.275.929l-.3.551a7.872,7.872,0,0,0-.992-.331,3.244,3.244,0,0,0-.693,0,4.629,4.629,0,0,0-2.22.63,2.582,2.582,0,0,0,1.4,2.346,3.779,3.779,0,0,0,1.575.425,12.109,12.109,0,0,0,1.26-.331q.6-.189,1.685-.614a.8.8,0,0,1,.236.614v.173a.866.866,0,0,1-.724.74q-2.063.52-3.149.709t-2.173.3q-1.023.016-2.2.016Zm21.162.929-.441-2.8q-.74-4.393-.96-6.125a21.753,21.753,0,0,1-.236-2.283,1.354,1.354,0,0,1,.268-.9,1.575,1.575,0,0,1,.866-.441v.2l.567,1.858-.409.362v.268l.567,5.133q.157,1.118.236,2.157a2.661,2.661,0,0,0,1.275.3.126.126,0,0,1,.142.142v1.039a.126.126,0,0,1-.142.142,2.614,2.614,0,0,1-1.181-.283v.567A3.558,3.558,0,0,1,125,28.185a4.991,4.991,0,0,1-1.842,1.575,5.117,5.117,0,0,1-2.409.614,3.149,3.149,0,0,1-2.315-.85,3.291,3.291,0,0,1-.835-2.409,6.546,6.546,0,0,1,0-.945,6.694,6.694,0,0,1,.268-1.291l.63.157a5.274,5.274,0,0,0-.189,1.228,2.85,2.85,0,0,0,.63,1.968,2.252,2.252,0,0,0,1.764.709,5.558,5.558,0,0,0,1.716-.283A5.417,5.417,0,0,0,124,27.87,2.944,2.944,0,0,0,125.114,26.8Z" transform="translate(59.647 14.62)" fill="#fff" stroke="#fff" stroke-miterlimit="10" stroke-width="0.2"/>
  <path id="Path_179" data-name="Path 179" d="M132.212,23.9a3.842,3.842,0,0,1-1.464-.3,3.417,3.417,0,0,1-1.2-.772,6.3,6.3,0,0,1-1.889.787,8.849,8.849,0,0,1-2.22.283,12.769,12.769,0,0,1-2.567-.268,7.527,7.527,0,0,1-2.094-.709l-.3.331a2.456,2.456,0,0,1-1.889.63.126.126,0,0,1-.142-.142V22.7a.126.126,0,0,1,.142-.142,2.33,2.33,0,0,0,1.228-.283,3.039,3.039,0,0,0,.929-1.1l.268-.488a.6.6,0,0,1,.551-.3.551.551,0,0,1,.409.157q-.362.882-.52,1.2a6.3,6.3,0,0,0,.866.331q3.307-4.393,5.653-4.393a2.645,2.645,0,0,1,1.212.394A4.974,4.974,0,0,1,130.48,19.1a1.763,1.763,0,0,1,.567,1.1,2.881,2.881,0,0,1-.661,1.874,3.511,3.511,0,0,0,1.842.472c.094,0,.157,0,.157.142v1.039c-.031.126-.079.173-.173.173Zm-6.6-1.323a8.707,8.707,0,0,0,4.629-1.48,4.3,4.3,0,0,0-1.26-1.417,2.535,2.535,0,0,0-1.449-.52,3.59,3.59,0,0,0-1.952.8,13.872,13.872,0,0,0-2.456,2.362,13.636,13.636,0,0,0,2.488.252Z" transform="translate(68.059 17.243)" fill="#fff" stroke="#fff" stroke-miterlimit="10" stroke-width="0.2"/>
  <path id="Path_180" data-name="Path 180" d="M127.292,25.853a.126.126,0,0,1-.142-.142V24.672a.126.126,0,0,1,.142-.142,14.407,14.407,0,0,0,4-.441l.96-.331A9.888,9.888,0,0,1,134,23.287a7.591,7.591,0,0,1-1.338-.866,7.069,7.069,0,0,0-1.134-.772,1.984,1.984,0,0,0-.9-.22,2.693,2.693,0,0,0-1.5.425l-.409.252a.913.913,0,0,1-.252-.677,1.212,1.212,0,0,1,.583-1.055,2.614,2.614,0,0,1,1.575-.394,2.85,2.85,0,0,1,1.008.157,6.819,6.819,0,0,1,1.307.772,12.6,12.6,0,0,0,1.575,1.008,5.165,5.165,0,0,0,1.291.472,9.448,9.448,0,0,0,1.889.142l-.661,1.275-.976-.094h-.409a3.669,3.669,0,0,0-1.149.173,13.133,13.133,0,0,0-1.7.772,9.589,9.589,0,0,1-2.346.9,16.533,16.533,0,0,1-3.165.3ZM139.9,20.137v1.086q0,1.669-.126,4.535l-.787.142q-.11-6.078-.472-10.077V15.6a1.307,1.307,0,0,1,.268-.882,1.464,1.464,0,0,1,.866-.441v.2l.567,1.858-.472.394v.079Q139.9,18.563,139.9,20.137Z" transform="translate(73.058 14.3)" fill="#fff" stroke="#fff" stroke-miterlimit="10" stroke-width="0.2"/>
</svg>
