<svg id="presentation" xmlns="http://www.w3.org/2000/svg" width="35.25" height="35.25" viewBox="0 0 35.25 35.25">
  <g id="Group_186" data-name="Group 186">
    <g id="Group_185" data-name="Group 185">
      <path id="Path_223" data-name="Path 223" d="M33.487,2.35H25.262V1.762A1.764,1.764,0,0,0,23.5,0H11.75A1.764,1.764,0,0,0,9.988,1.762V2.35H1.762A1.764,1.764,0,0,0,0,4.112v21.15a1.764,1.764,0,0,0,1.762,1.763H2.938A1.764,1.764,0,0,0,4.7,28.787h7.972l-1.86,3.227a1.776,1.776,0,0,0,.647,2.411,1.756,1.756,0,0,0,.875.235A1.777,1.777,0,0,0,12.8,34.6a1.749,1.749,0,0,0,1.067-.823l2-3.464v3.176a1.762,1.762,0,1,0,3.525,0V30.311l2,3.462a1.75,1.75,0,0,0,1.071.825,1.768,1.768,0,0,0,.462.062,1.745,1.745,0,0,0,.877-.237,1.762,1.762,0,0,0,.821-1.072,1.744,1.744,0,0,0-.179-1.338l-1.86-3.226H30.55a1.764,1.764,0,0,0,1.763-1.762h1.175a1.764,1.764,0,0,0,1.763-1.763V4.112A1.764,1.764,0,0,0,33.487,2.35ZM11.162,1.762a.588.588,0,0,1,.587-.587H23.5a.588.588,0,0,1,.587.587V2.35H11.162ZM12.844,33.19a.587.587,0,1,1-1.014-.59l2.2-3.813h1.357Zm5.368.3a.587.587,0,0,1-1.175,0v-4.7h1.175v4.7Zm5.209-.885a.583.583,0,0,1-.216.8.574.574,0,0,1-.442.057.584.584,0,0,1-.358-.277l-2.54-4.4h1.357Zm7.716-5.578a.588.588,0,0,1-.587.587H4.7a.588.588,0,0,1-.587-.587V25.262H31.138Zm2.937-1.762a.588.588,0,0,1-.587.587H32.312V24.675a.587.587,0,0,0-.587-.587H3.525a.587.587,0,0,0-.587.587V25.85H1.762a.588.588,0,0,1-.587-.587V4.113a.588.588,0,0,1,.587-.587H33.487a.588.588,0,0,1,.587.587v21.15Z" fill="#535962"/>
      <path id="Path_224" data-name="Path 224" d="M160.65,102.4a7.05,7.05,0,1,0,7.05,7.05A7.05,7.05,0,0,0,160.65,102.4Zm0,12.925a5.875,5.875,0,1,1,5.875-5.875A5.875,5.875,0,0,1,160.65,115.325Z" transform="translate(-143.025 -95.35)" fill="#535962"/>
      <path id="Path_225" data-name="Path 225" d="M235.441,156.647h0l-4.112-2.937a.588.588,0,0,0-.929.478v5.875a.588.588,0,0,0,.929.478l4.112-2.938a.588.588,0,0,0,0-.956Zm-3.866,2.274v-3.592l2.514,1.8Z" transform="translate(-214.538 -143.025)" fill="#535962"/>
    </g>
  </g>
</svg>
