<svg xmlns="http://www.w3.org/2000/svg" width="37.118" height="37.118" viewBox="0 0 37.118 37.118">
  <g id="professor" transform="translate(0 0)">
    <path id="Path_322" data-name="Path 322" d="M37.118,2.395H34.723V0h-8.98a2.983,2.983,0,0,0-2.395,1.216A2.983,2.983,0,0,0,20.954,0h-8.98V2.395H9.579v8.49A7.189,7.189,0,0,0,3.592,17.96V22.75a2.4,2.4,0,0,0,2.395,2.395h.353a4.806,4.806,0,0,0,1.443,1.937v1.205L3.029,29.658A4.209,4.209,0,0,0,0,33.684v3.434H21.552V33.684a4.211,4.211,0,0,0-3.029-4.027L13.77,28.286V27.081a4.806,4.806,0,0,0,1.443-1.937h.353A2.4,2.4,0,0,0,17.96,22.75v-1.2h2.455a2.993,2.993,0,0,0,5.866,0h1.258V34.723a2.395,2.395,0,1,0,4.789,0V21.552h4.789ZM25.743,1.2h7.783V17.96h-1.2v-.7L31.29,14.148a1.43,1.43,0,0,0-2.712,0l-1.039,3.117v.7H23.947V2.993A1.8,1.8,0,0,1,25.743,1.2Zm2.993,28.736h2.395v1.2H28.737Zm0-1.2V17.96h2.395V28.736Zm.232-11.974.745-2.236a.241.241,0,0,1,.44,0l.746,2.236ZM20.954,1.2a1.8,1.8,0,0,1,1.8,1.8V17.96H17.96A7.19,7.19,0,0,0,13.171,11.2V1.2ZM10.776,3.592h1.2v7.293a7.152,7.152,0,0,0-1.2-.108Zm0,8.381a5.993,5.993,0,0,1,5.987,5.987v2.728a2.368,2.368,0,0,0-1.2-.333v-1.2h-.6a8.438,8.438,0,0,1-5.029-1.676l-.507-.38-.552.828a2.753,2.753,0,0,1-2.294,1.228h-.6v1.2a2.369,2.369,0,0,0-1.2.333V17.96a5.993,5.993,0,0,1,5.987-5.987ZM5.987,23.947a1.2,1.2,0,0,1,0-2.395v1.8a4.818,4.818,0,0,0,.041.6Zm2.221,5.462L9.88,31.081,8.111,32.5,7.3,29.67ZM1.2,33.684a3.007,3.007,0,0,1,2.163-2.876L6.153,30l1.3,4.553,2.723-2.179v3.544H5.987V33.526h-1.2v2.395H1.2Zm19.158,0v2.237H16.763V33.526h-1.2v2.395H11.375V32.377L14.1,34.556,15.4,30l2.792.805A3.007,3.007,0,0,1,20.355,33.684ZM14.248,29.67,13.441,32.5l-1.769-1.415,1.672-1.672Zm-1.676-1.182-1.8,1.8-1.8-1.8v-.7a4.751,4.751,0,0,0,3.592,0Zm1.8-5.14a3.592,3.592,0,0,1-7.184,0V20.309A3.937,3.937,0,0,0,9.731,18.8a9.664,9.664,0,0,0,4.637,1.539Zm1.2.6h-.041a4.818,4.818,0,0,0,.041-.6v-1.8a1.2,1.2,0,1,1,0,2.395Zm9.579-3.592v.6a1.8,1.8,0,0,1-3.592,0v-.6H17.96v-1.2h9.579v1.2Zm4.789,15.566a1.2,1.2,0,0,1-1.2-1.2V32.329h2.395v2.395A1.2,1.2,0,0,1,29.934,35.921Zm5.987-15.566H32.329v-1.2h2.395V3.592h1.2Zm0,0" transform="translate(0 0)" fill="#002f57"/>
    <path id="Path_323" data-name="Path 323" d="M336,32h7.184v1.2H336Zm0,0" transform="translate(-310.856 -29.605)" fill="#002f57"/>
    <path id="Path_324" data-name="Path 324" d="M343.184,96H336v4.789h7.184Zm-1.2,3.592H337.2V97.2h4.789Zm0,0" transform="translate(-310.856 -88.816)" fill="#002f57"/>
    <path id="Path_325" data-name="Path 325" d="M336,64h7.184v1.2H336Zm0,0" transform="translate(-310.856 -59.211)" fill="#002f57"/>
    <path id="Path_326" data-name="Path 326" d="M199.184,32H192v4.789h7.184Zm-1.2,3.592H193.2V33.2h4.789Zm0,0" transform="translate(-177.632 -29.605)" fill="#002f57"/>
    <path id="Path_327" data-name="Path 327" d="M192,112h7.184v1.2H192Zm0,0" transform="translate(-177.632 -103.619)" fill="#002f57"/>
    <path id="Path_328" data-name="Path 328" d="M240,144h3.592v1.2H240Zm0,0" transform="translate(-222.04 -133.224)" fill="#002f57"/>
    <path id="Path_329" data-name="Path 329" d="M256,176h2.395v1.2H256Zm0,0" transform="translate(-236.842 -162.829)" fill="#002f57"/>
    <path id="Path_330" data-name="Path 330" d="M256,208h2.395v1.2H256Zm0,0" transform="translate(-236.842 -192.434)" fill="#002f57"/>
  </g>
</svg>
