<svg xmlns="http://www.w3.org/2000/svg" width="39.803" height="36.688" viewBox="0 0 39.803 36.688">
  <g id="school" transform="translate(0 0)">
    <path id="Path_243" data-name="Path 243" d="M39.219,55.519H37.934V39.24h1.285a.584.584,0,0,0,.493-.9L35.35,31.487a.584.584,0,0,0-.493-.271h-11.6l-2.773-2.773v-2.29h5.647a.584.584,0,0,0,.486-.908L25.589,23.7l1.03-1.545a.584.584,0,0,0-.486-.908H20.486v-.662a.584.584,0,0,0-1.168,0v7.859l-2.773,2.773H4.946a.584.584,0,0,0-.493.271L.091,38.342a.584.584,0,0,0,.493.9H1.869v16.28H.584a.584.584,0,1,0,0,1.168H39.219a.584.584,0,0,0,0-1.168ZM34.536,32.385l3.619,5.686H30.114l-5.686-5.686Zm-9.495-9.97-.641.961a.584.584,0,0,0,0,.648l.641.961H20.486v-2.57ZM5.267,32.385H15.375L9.689,38.071H1.648ZM3.038,39.24H9.931l.058,0,.025,0,.032,0,.028-.007.027-.007.027-.009.027-.01.025-.012.027-.013.023-.014.026-.016.025-.019.021-.015a.562.562,0,0,0,.043-.039L19.9,29.511l9.557,9.557c.014.014.028.027.043.039l.02.015.025.019.025.015.024.014.027.013.025.012.026.01.027.01.027.007.029.007.031,0,.026,0,.058,0h6.894v16.28H24.225v-8.14a1.833,1.833,0,0,0-1.83-1.83H17.409a1.833,1.833,0,0,0-1.83,1.83v8.14H3.038Zm20.019,8.8H16.747v-.662a.663.663,0,0,1,.662-.662h4.985a.663.663,0,0,1,.662.662ZM16.747,49.21h2.57v6.309h-2.57Zm3.739,0h2.57v6.309h-2.57Z" transform="translate(0 -20)" fill="#535962"/>
    <path id="Path_244" data-name="Path 244" d="M204.323,220.646A4.323,4.323,0,1,0,200,216.323,4.328,4.328,0,0,0,204.323,220.646Zm0-7.478a3.155,3.155,0,1,1-3.155,3.155A3.158,3.158,0,0,1,204.323,213.168Z" transform="translate(-184.421 -197.045)" fill="#535962"/>
    <path id="Path_245" data-name="Path 245" d="M226.454,239.038a.584.584,0,0,0,.584-.584v-1.869a.584.584,0,0,0-1.168,0v1.285h-1.285a.584.584,0,0,0,0,1.168Z" transform="translate(-206.552 -219.175)" fill="#535962"/>
    <path id="Path_246" data-name="Path 246" d="M131.7,388h-3.116a.584.584,0,0,0-.584.584v3.739a.584.584,0,0,0,.584.584H131.7a.584.584,0,0,0,.584-.584v-3.739A.584.584,0,0,0,131.7,388Zm-.584,1.168v.7h-1.947v-.7Zm-1.947,2.57v-.7h1.947v.7Z" transform="translate(-118.03 -359.335)" fill="#535962"/>
    <path id="Path_247" data-name="Path 247" d="M59.7,388H56.584a.584.584,0,0,0-.584.584v3.739a.584.584,0,0,0,.584.584H59.7a.584.584,0,0,0,.584-.584v-3.739A.584.584,0,0,0,59.7,388Zm-.584,1.168v.7H57.168v-.7Zm-1.947,2.57v-.7h1.947v.7Z" transform="translate(-51.638 -359.335)" fill="#535962"/>
    <path id="Path_248" data-name="Path 248" d="M131.505,292h-2.726a.78.78,0,0,0-.779.779v4.167a.584.584,0,0,0,.584.584H131.7a.584.584,0,0,0,.584-.584v-4.167A.78.78,0,0,0,131.505,292Zm-.389,1.168v1.324h-1.947v-1.324Zm-1.947,3.194v-.7h1.947v.7Z" transform="translate(-118.03 -270.813)" fill="#535962"/>
    <path id="Path_249" data-name="Path 249" d="M59.505,292H56.779a.78.78,0,0,0-.779.779v4.167a.584.584,0,0,0,.584.584H59.7a.584.584,0,0,0,.584-.584v-4.167A.78.78,0,0,0,59.505,292Zm-.389,1.168v1.324H57.168v-1.324Zm-1.947,3.194v-.7h1.947v.7Z" transform="translate(-51.638 -270.813)" fill="#535962"/>
    <path id="Path_250" data-name="Path 250" d="M400.584,392.907H403.7a.584.584,0,0,0,.584-.584v-3.739A.584.584,0,0,0,403.7,388h-3.116a.584.584,0,0,0-.584.584v3.739A.584.584,0,0,0,400.584,392.907Zm.584-1.168v-.7h1.947v.7Zm1.947-2.57v.7h-1.947v-.7Z" transform="translate(-368.843 -359.335)" fill="#535962"/>
    <path id="Path_251" data-name="Path 251" d="M328.584,392.907H331.7a.584.584,0,0,0,.584-.584v-3.739A.584.584,0,0,0,331.7,388h-3.116a.584.584,0,0,0-.584.584v3.739A.584.584,0,0,0,328.584,392.907Zm.584-1.168v-.7h1.947v.7Zm1.947-2.57v.7h-1.947v-.7Z" transform="translate(-302.451 -359.335)" fill="#535962"/>
    <path id="Path_252" data-name="Path 252" d="M400.584,297.53H403.7a.584.584,0,0,0,.584-.584v-4.167a.78.78,0,0,0-.779-.779h-2.726a.78.78,0,0,0-.779.779v4.167A.584.584,0,0,0,400.584,297.53Zm.584-1.168v-.7h1.947v.7Zm1.947-3.194v1.324h-1.947v-1.324Z" transform="translate(-368.843 -270.813)" fill="#535962"/>
    <path id="Path_253" data-name="Path 253" d="M328.584,297.53H331.7a.584.584,0,0,0,.584-.584v-4.167a.78.78,0,0,0-.779-.779h-2.726a.78.78,0,0,0-.779.779v4.167A.584.584,0,0,0,328.584,297.53Zm.584-1.168v-.7h1.947v.7Zm1.947-3.194v1.324h-1.947v-1.324Z" transform="translate(-302.451 -270.813)" fill="#535962"/>
  </g>
</svg>
