<svg id="shop" xmlns="http://www.w3.org/2000/svg" width="37.09" height="30.122" viewBox="0 0 37.09 30.122">
  <g id="Group_1558" data-name="Group 1558">
    <g id="Group_1557" data-name="Group 1557">
      <path id="Path_9130" data-name="Path 9130" d="M35.385,77.131h-.618V61.013a5.043,5.043,0,0,0,2.323-4.243.544.544,0,0,0-.072-.27l-4.311-7.545a1.709,1.709,0,0,0-1.48-.859H5.863a1.709,1.709,0,0,0-1.48.859L.072,56.5a.544.544,0,0,0-.072.27,5.043,5.043,0,0,0,2.323,4.243V77.131H1.7a.543.543,0,1,0,0,1.087h33.68a.543.543,0,1,0,0-1.087ZM1.124,57.312H2.866a.543.543,0,1,0,0-1.087H1.48l3.847-6.732a.619.619,0,0,1,.537-.311H31.227a.619.619,0,0,1,.537.311l3.847,6.732H34.224a.543.543,0,1,0,0,1.087h1.742a3.957,3.957,0,0,1-7.838,0H31.9a.543.543,0,1,0,0-1.087H5.189a.543.543,0,1,0,0,1.087H8.963a3.957,3.957,0,0,1-7.838,0Zm25.84,0a3.956,3.956,0,0,1-7.838,0Zm-9,0a3.956,3.956,0,0,1-7.838,0ZM30.777,77.131H24.9V75.314h5.882Zm0-2.9H24.9V64.281h5.882Zm2.9,2.9H31.864V63.737a.543.543,0,0,0-.543-.543H24.352a.543.543,0,0,0-.543.543V77.131H3.409V61.539a5.039,5.039,0,0,0,6.135-2.494,5.043,5.043,0,0,0,9,0,5.043,5.043,0,0,0,9,0A5.039,5.039,0,0,0,33.68,61.54Z" transform="translate(0 -48.096)" fill="#002f57"/>
    </g>
  </g>
  <g id="Group_1560" data-name="Group 1560" transform="translate(5.226 15.098)">
    <g id="Group_1559" data-name="Group 1559">
      <path id="Path_9131" data-name="Path 9131" d="M88.367,256.516H72.688a.543.543,0,0,0-.543.543v11.033a.543.543,0,0,0,.543.543H88.367a.543.543,0,0,0,.543-.543V257.059A.543.543,0,0,0,88.367,256.516Zm-.543,11.033H73.232V257.6H87.824Z" transform="translate(-72.145 -256.516)" fill="#002f57"/>
    </g>
  </g>
</svg>
