<svg xmlns="http://www.w3.org/2000/svg" width="20.036" height="18" viewBox="0 0 20.036 18">
  <g id="speech-bubble" transform="translate(0 0)">
    <path id="Path_8856" data-name="Path 8856" d="M246.391,100a.391.391,0,1,0,.391.391A.391.391,0,0,0,246.391,100Zm0,0" transform="translate(-236.374 -96.087)" fill="#fff"/>
    <path id="Path_8857" data-name="Path 8857" d="M80.391,260.783a.391.391,0,1,0-.391-.391A.391.391,0,0,0,80.391,260.783Zm0,0" transform="translate(-76.869 -249.826)" fill="#fff"/>
    <path id="Path_8858" data-name="Path 8858" d="M13.148,0C9.625,0,6.734,2.429,6.51,5.488,3.155,5.656,0,8.076,0,11.348A5.468,5.468,0,0,0,1.526,15.09,2.38,2.38,0,0,1,.9,17.332.391.391,0,0,0,1.174,18a4.317,4.317,0,0,0,2.991-1.209,8.917,8.917,0,0,0,2.723.426c3.522,0,6.414-2.428,6.638-5.487a8.8,8.8,0,0,0,2.346-.417,4.317,4.317,0,0,0,2.991,1.209.391.391,0,0,0,.277-.668,2.38,2.38,0,0,1-.629-2.242,5.468,5.468,0,0,0,1.526-3.742c0-3.4-3.4-5.87-6.887-5.87ZM6.887,16.435a7.911,7.911,0,0,1-2.681-.462.391.391,0,0,0-.434.1,3.531,3.531,0,0,1-1.756,1.042,3.165,3.165,0,0,0,.239-2.329.391.391,0,0,0-.1-.165A4.7,4.7,0,0,1,.783,11.348c0-2.758,2.8-5.087,6.1-5.087,3.125,0,5.87,2.173,5.87,5.087,0,2.805-2.633,5.087-5.87,5.087ZM17.876,9.142a.392.392,0,0,0-.1.165,3.165,3.165,0,0,0,.239,2.329,3.53,3.53,0,0,1-1.756-1.042.392.392,0,0,0-.434-.1,7.709,7.709,0,0,1-2.305.452,5.6,5.6,0,0,0-2.114-3.9h5.1a.391.391,0,0,0,0-.783H10.207A7.3,7.3,0,0,0,7.295,5.49C7.52,2.861,10.059.782,13.148.782c3.309,0,6.1,2.33,6.1,5.087a4.7,4.7,0,0,1-1.377,3.272Zm0,0" fill="#fff"/>
    <path id="Path_8859" data-name="Path 8859" d="M125.322,260h-4.931a.391.391,0,0,0,0,.783h4.931a.391.391,0,0,0,0-.783Zm0,0" transform="translate(-115.304 -249.826)" fill="#fff"/>
    <path id="Path_8860" data-name="Path 8860" d="M86.887,320h-6.5a.391.391,0,1,0,0,.783h6.5a.391.391,0,1,0,0-.783Zm0,0" transform="translate(-76.869 -307.478)" fill="#fff"/>
    <path id="Path_8861" data-name="Path 8861" d="M291.322,100h-4.931a.391.391,0,1,0,0,.783h4.931a.391.391,0,1,0,0-.783Zm0,0" transform="translate(-274.808 -96.087)" fill="#fff"/>
  </g>
</svg>
