<svg xmlns="http://www.w3.org/2000/svg" width="31.176" height="30.333" viewBox="0 0 31.176 30.333">
  <g id="Group_7691" data-name="Group 7691" transform="translate(-1201.969 -416.597)">
    <path id="Path_20551" data-name="Path 20551" d="M30.585,270.721l-4.73-.688-2.113-4.281a.7.7,0,0,0-1.263,0l-2.113,4.281-.442.063a11.7,11.7,0,0,0-8.036-3.144h-.021a11.648,11.648,0,0,0-8.408,3.53A12.523,12.523,0,0,0,0,279.326a.725.725,0,0,0,.2.5.7.7,0,0,0,.5.2l17.16-.035a.7.7,0,0,0,.281.66.715.715,0,0,0,.737.056l4.225-2.225,4.225,2.225a.723.723,0,0,0,.744-.056.7.7,0,0,0,.281-.688l-.807-4.709,3.418-3.334a.706.706,0,0,0,.176-.723.692.692,0,0,0-.554-.477ZM18.1,278.589l-16.683.035a10.975,10.975,0,0,1,3.046-7.152,10.234,10.234,0,0,1,7.4-3.1h.021a10.375,10.375,0,0,1,6.169,2.007l-2.421.351a.7.7,0,0,0-.569.477.71.71,0,0,0,.175.723l3.418,3.334Zm8.2-4.085a.708.708,0,0,0-.2.625l.632,3.671-3.3-1.734a.7.7,0,0,0-.33-.077.781.781,0,0,0-.33.077l-3.3,1.734.632-3.671a.7.7,0,0,0-.2-.625l-2.667-2.6,3.685-.533a.686.686,0,0,0,.526-.386l1.649-3.341,1.649,3.341a.709.709,0,0,0,.526.386l3.685.533Zm0,0" transform="translate(1201.971 166.143)" fill="#aeacac"/>
    <path id="Path_20552" data-name="Path 20552" d="M86.883,14.821A7.418,7.418,0,1,0,79.465,7.4a7.418,7.418,0,0,0,7.418,7.418Zm0-13.433A6.015,6.015,0,1,1,80.869,7.4a6.014,6.014,0,0,1,6.015-6.015Zm0,0" transform="translate(1126.968 416.612)" fill="#aeacac"/>
  </g>
</svg>
