<svg xmlns="http://www.w3.org/2000/svg" width="41.652" height="37.178" viewBox="0 0 41.652 37.178">
  <g id="telescope_2_" data-name="telescope (2)" transform="translate(0 -0.001)">
    <path id="Path_9138" data-name="Path 9138" d="M182.278,118.156a.814.814,0,1,0-.394-1.081A.813.813,0,0,0,182.278,118.156Zm0,0" transform="translate(-167.017 -107.119)" fill="#fff"/>
    <path id="Path_9139" data-name="Path 9139" d="M217.49,137l7.1,4.03a.814.814,0,0,0,.8-1.415l-7.1-4.03a.814.814,0,0,0-.8,1.415Zm0,0" transform="translate(-199.418 -124.454)" fill="#fff"/>
    <path id="Path_9140" data-name="Path 9140" d="M1.41,14.975l1.475.689A2.444,2.444,0,0,0,5.714,15.1l11.714,3.831a3.276,3.276,0,0,0-.019.35,3.241,3.241,0,0,0,1.125,2.46L12.8,35.552H10.087a.814.814,0,0,0,0,1.627h6.508a.814.814,0,0,0,0-1.627H14.56L20,22.464a3.181,3.181,0,0,0,1.335,0l5.435,13.087H24.73a.814.814,0,0,0,0,1.627h6.508a.814.814,0,1,0,0-1.627H28.528L22.791,21.74a3.293,3.293,0,0,0,.606-.7l7.566,2.7a.813.813,0,0,0,1.011-.422l.344-.738,3.088,1.436a2.441,2.441,0,0,0,4.642,1.265l1.374-2.947a2.44,2.44,0,0,0-3.953-2.742l-3.088-1.436.344-.737a.813.813,0,0,0-.341-1.054L11.155,3.414A2.44,2.44,0,0,0,9.761.917L8.287.229a2.444,2.444,0,0,0-3.244,1.18L.23,11.732A2.438,2.438,0,0,0,1.41,14.975ZM10.572,4.953,28.656,15.036,26.2,20.312,23.909,19.5c0-.072.008-.144.008-.216A3.255,3.255,0,0,0,18,17.407L6.516,13.65Zm8.463,14.328a1.627,1.627,0,1,1,1.627,1.627A1.624,1.624,0,0,1,19.036,19.281Zm20.52,1.284a.814.814,0,0,1,.392,1.081L38.573,24.6a.814.814,0,1,1-1.475-.687l1.376-2.949a.815.815,0,0,1,1.082-.394Zm-2.9.444-.688,1.475-2.961-1.377.688-1.475Zm-5.466.145,0,0v0l-.373.8-3.078-1.1,2.347-5.031,2.85,1.589ZM1.7,12.42,6.518,2.1A.815.815,0,0,1,7.6,1.7l1.474.688a.813.813,0,0,1,.394,1.081L4.654,13.794a.815.815,0,0,1-1.081.394L2.1,13.5A.812.812,0,0,1,1.7,12.42Zm0,0" transform="translate(0 0)" fill="#fff"/>
  </g>
</svg>
