<svg xmlns="http://www.w3.org/2000/svg" width="47.539" height="38.614" viewBox="0 0 47.539 38.614">
  <g id="twitter-logo-silhouette" transform="translate(0)">
    <g id="Group_121" data-name="Group 121" transform="translate(0 0)">
      <path id="Path_187" data-name="Path 187" d="M47.539,62.01a19.474,19.474,0,0,1-5.6,1.536,9.793,9.793,0,0,0,4.287-5.392,19.66,19.66,0,0,1-6.2,2.368,9.76,9.76,0,0,0-16.617,8.891,27.687,27.687,0,0,1-20.1-10.189A9.763,9.763,0,0,0,6.331,72.24a9.753,9.753,0,0,1-4.417-1.224v.122A9.762,9.762,0,0,0,9.736,80.7a9.878,9.878,0,0,1-2.57.342,9.361,9.361,0,0,1-1.836-.181,9.757,9.757,0,0,0,9.108,6.773A19.566,19.566,0,0,1,2.327,91.8,20.724,20.724,0,0,1,0,91.668a27.566,27.566,0,0,0,14.948,4.388c17.939,0,27.745-14.859,27.745-27.745l-.033-1.262A19.474,19.474,0,0,0,47.539,62.01Z" transform="translate(-0.001 -57.441)" fill="#fff"/>
    </g>
  </g>
</svg>
