<svg xmlns="http://www.w3.org/2000/svg" width="48.284" height="46.733" viewBox="0 0 48.284 46.733">
  <g id="Group_7547" data-name="Group 7547" transform="translate(-14409.6 3024.7)">
    <g id="Group_7523" data-name="Group 7523" transform="translate(14410.1 -3024.2)">
      <path id="Path_22477" data-name="Path 22477" d="M635.173,420.9H623.3v9.119h39.553V420.9H651.142" transform="translate(-619.481 -404.838)" fill="none" stroke="#535962" stroke-linejoin="round" stroke-miterlimit="10" stroke-width="1"/>
      <rect id="Rectangle_6066" data-name="Rectangle 6066" width="44.321" height="18.33" transform="translate(1.481 27.403)" fill="none" stroke="#535962" stroke-linejoin="round" stroke-miterlimit="10" stroke-width="1"/>
      <path id="Path_22478" data-name="Path 22478" d="M674.2,416.085v10.091h16.108V415.9" transform="translate(-658.601 -400.995)" fill="none" stroke="#535962" stroke-miterlimit="10" stroke-width="1"/>
      <rect id="Rectangle_6067" data-name="Rectangle 6067" width="2.638" height="7.128" transform="translate(17.867 16.039)" fill="none" stroke="#535962" stroke-linejoin="round" stroke-miterlimit="10" stroke-width="1"/>
      <path id="Path_29636" data-name="Path 29636" d="M0,0H2.638V7.128S.66,8.911,0,7.128,0,0,0,0Z" transform="translate(22.334 16.039)" fill="none" stroke="#535962" stroke-width="1"/>
      <rect id="Rectangle_6069" data-name="Rectangle 6069" width="2.638" height="7.128" transform="translate(26.801 16.039)" fill="none" stroke="#535962" stroke-linejoin="round" stroke-miterlimit="10" stroke-width="1"/>
      <rect id="Rectangle_6070" data-name="Rectangle 6070" width="3.425" height="5.323" transform="translate(3.819 29.301)" fill="none" stroke="#535962" stroke-linejoin="round" stroke-miterlimit="10" stroke-width="1"/>
      <rect id="Rectangle_6071" data-name="Rectangle 6071" width="3.425" height="6.504" transform="translate(3.819 37.054)" fill="none" stroke="#535962" stroke-linejoin="round" stroke-miterlimit="10" stroke-width="1"/>
      <rect id="Rectangle_6072" data-name="Rectangle 6072" width="3.425" height="5.323" transform="translate(8.887 29.301)" fill="none" stroke="#535962" stroke-linejoin="round" stroke-miterlimit="10" stroke-width="1"/>
      <rect id="Rectangle_6073" data-name="Rectangle 6073" width="3.171" height="5.323" transform="translate(5.416 18.33)" fill="none" stroke="#535962" stroke-linejoin="round" stroke-miterlimit="10" stroke-width="1"/>
      <rect id="Rectangle_6074" data-name="Rectangle 6074" width="3.171" height="5.323" transform="translate(10.716 18.33)" fill="none" stroke="#535962" stroke-linejoin="round" stroke-miterlimit="10" stroke-width="1"/>
      <rect id="Rectangle_6075" data-name="Rectangle 6075" width="3.171" height="5.323" transform="translate(33.258 18.33)" fill="none" stroke="#535962" stroke-linejoin="round" stroke-miterlimit="10" stroke-width="1"/>
      <rect id="Rectangle_6076" data-name="Rectangle 6076" width="3.171" height="5.323" transform="translate(38.581 18.33)" fill="none" stroke="#535962" stroke-linejoin="round" stroke-miterlimit="10" stroke-width="1"/>
      <rect id="Rectangle_6077" data-name="Rectangle 6077" width="3.425" height="6.504" transform="translate(8.887 37.054)" fill="none" stroke="#535962" stroke-linejoin="round" stroke-miterlimit="10" stroke-width="1"/>
      <rect id="Rectangle_6078" data-name="Rectangle 6078" width="3.425" height="5.184" transform="translate(34.971 29.301)" fill="none" stroke="#535962" stroke-linejoin="round" stroke-miterlimit="10" stroke-width="1"/>
      <rect id="Rectangle_6079" data-name="Rectangle 6079" width="3.425" height="6.504" transform="translate(34.971 37.054)" fill="none" stroke="#535962" stroke-linejoin="round" stroke-miterlimit="10" stroke-width="1"/>
      <rect id="Rectangle_6080" data-name="Rectangle 6080" width="3.425" height="5.184" transform="translate(39.947 29.301)" fill="none" stroke="#535962" stroke-linejoin="round" stroke-miterlimit="10" stroke-width="1"/>
      <rect id="Rectangle_6081" data-name="Rectangle 6081" width="3.425" height="6.504" transform="translate(39.947 37.054)" fill="none" stroke="#535962" stroke-linejoin="round" stroke-miterlimit="10" stroke-width="1"/>
      <path id="Path_22479" data-name="Path 22479" d="M692.015,469.9h0a1.768,1.768,0,0,1-1.782,1.782h-1.551A1.783,1.783,0,0,1,686.9,469.9Z" transform="translate(-668.361 -442.497)" fill="none" stroke="#535962" stroke-miterlimit="10" stroke-width="1"/>
      <path id="Path_22480" data-name="Path 22480" d="M669.915,469.9h0a1.768,1.768,0,0,1-1.782,1.782h-1.551A1.783,1.783,0,0,1,664.8,469.9Z" transform="translate(-651.376 -442.497)" fill="none" stroke="#535962" stroke-miterlimit="10" stroke-width="1"/>
      <path id="Path_22481" data-name="Path 22481" d="M736.115,469.9h0a1.768,1.768,0,0,1-1.782,1.782h-1.551A1.783,1.783,0,0,1,731,469.9Z" transform="translate(-702.255 -442.497)" fill="none" stroke="#535962" stroke-miterlimit="10" stroke-width="1"/>
      <path id="Path_22482" data-name="Path 22482" d="M714.015,469.9h0a1.768,1.768,0,0,1-1.782,1.782h-1.551A1.783,1.783,0,0,1,708.9,469.9Z" transform="translate(-685.27 -442.497)" fill="none" stroke="#535962" stroke-miterlimit="10" stroke-width="1"/>
      <path id="Path_22483" data-name="Path 22483" d="M692.015,543.182h0a1.768,1.768,0,0,0-1.782-1.782h-1.551a1.783,1.783,0,0,0-1.782,1.782Z" transform="translate(-668.361 -497.449)" fill="none" stroke="#535962" stroke-miterlimit="10" stroke-width="1"/>
      <path id="Path_22484" data-name="Path 22484" d="M669.915,543.182h0a1.768,1.768,0,0,0-1.782-1.782h-1.551a1.783,1.783,0,0,0-1.782,1.782Z" transform="translate(-651.376 -497.449)" fill="none" stroke="#535962" stroke-miterlimit="10" stroke-width="1"/>
      <path id="Path_22485" data-name="Path 22485" d="M736.115,543.182h0a1.768,1.768,0,0,0-1.782-1.782h-1.551A1.783,1.783,0,0,0,731,543.182Z" transform="translate(-702.255 -497.449)" fill="none" stroke="#535962" stroke-miterlimit="10" stroke-width="1"/>
      <path id="Path_22486" data-name="Path 22486" d="M714.015,543.182h0a1.768,1.768,0,0,0-1.782-1.782h-1.551a1.783,1.783,0,0,0-1.782,1.782Z" transform="translate(-685.27 -497.449)" fill="none" stroke="#535962" stroke-miterlimit="10" stroke-width="1"/>
      <rect id="Rectangle_6082" data-name="Rectangle 6082" width="2.5" height="14.812" transform="translate(14.72 29.208)" fill="none" stroke="#535962" stroke-miterlimit="10" stroke-width="1"/>
      <rect id="Rectangle_6083" data-name="Rectangle 6083" width="2.5" height="14.812" transform="translate(19.835 29.301)" fill="none" stroke="#535962" stroke-miterlimit="10" stroke-width="1"/>
      <rect id="Rectangle_6084" data-name="Rectangle 6084" width="2.5" height="14.812" transform="translate(24.949 29.208)" fill="none" stroke="#535962" stroke-miterlimit="10" stroke-width="1"/>
      <rect id="Rectangle_6085" data-name="Rectangle 6085" width="2.5" height="14.812" transform="translate(30.064 29.208)" fill="none" stroke="#535962" stroke-miterlimit="10" stroke-width="1"/>
      <path id="Path_22487" data-name="Path 22487" d="M688.387,393.659l.579-1.643-8.633-5.416-8.633,5.3.579,1.759,8.008-4.837Z" transform="translate(-656.679 -378.476)" fill="none" stroke="#535962" stroke-miterlimit="10" stroke-width="1"/>
      <rect id="Rectangle_6086" data-name="Rectangle 6086" width="47.284" height="2.222" transform="translate(0 25.181)" fill="none" stroke="#535962" stroke-linejoin="round" stroke-miterlimit="10" stroke-width="1"/>
      <line id="Line_203" data-name="Line 203" y1="8.124" transform="translate(23.584 0)" fill="none" stroke="#535962" stroke-linecap="round" stroke-miterlimit="10" stroke-width="1"/>
    </g>
    <path id="Path_22537" data-name="Path 22537" d="M715.5,355.324c-1.62-.324-2.962.393-4.675.417A2.545,2.545,0,0,1,708.7,355v3.009a13.27,13.27,0,0,0,2.523.023c1.852-.255,2.476-1.065,3.911-1.366a18.776,18.776,0,0,1,2.569-.37A4.122,4.122,0,0,0,715.5,355.324Z" transform="translate(13724.983 -3378.39)" fill="none" stroke="#535962" stroke-linecap="square" stroke-linejoin="round" stroke-miterlimit="10" stroke-width="1"/>
  </g>
</svg>
