<svg xmlns="http://www.w3.org/2000/svg" width="49.148" height="39" viewBox="0 0 49.148 39">
  <path id="Union_23" data-name="Union 23" d="M8368.82,15299.336a7.664,7.664,0,1,1,7.663,7.664A7.672,7.672,0,0,1,8368.82,15299.336Zm1.586,0a6.078,6.078,0,1,0,6.077-6.077A6.083,6.083,0,0,0,8370.406,15299.336Zm4.694,3.054-1.989-1.989a.375.375,0,0,1,.529-.53l1.726,1.725,4.494-4.486a.382.382,0,0,1,.53,0,.374.374,0,0,1,0,.529l-4.76,4.752a.374.374,0,0,1-.53,0Zm-16.849-5.692a10.833,10.833,0,1,0-21.667,0,.793.793,0,0,1-1.586,0,12.419,12.419,0,1,1,24.839,0,.793.793,0,0,1-1.586,0Zm15.186-6.619a10.832,10.832,0,0,0-14.637-2.366.793.793,0,1,1-.887-1.314,12.426,12.426,0,0,1,16.775,2.709.792.792,0,1,1-1.252.972Zm-15.186-15.474a6.605,6.605,0,1,1,6.607,6.607A6.612,6.612,0,0,1,8358.252,15274.6Zm1.586,0a5.019,5.019,0,1,0,5.021-5.021A5.025,5.025,0,0,0,8359.838,15274.6Zm-19.026,0a6.605,6.605,0,1,1,6.607,6.607A6.613,6.613,0,0,1,8340.812,15274.6Zm1.586,0a5.021,5.021,0,1,0,5.021-5.021A5.025,5.025,0,0,0,8342.4,15274.6Z" transform="translate(-8334.999 -15268)" fill="#535962"/>
</svg>
