<svg id="Untitled" xmlns="http://www.w3.org/2000/svg" width="228.622" height="58.799" viewBox="0 0 228.622 58.799">
  <circle id="Ellipse_3" data-name="Ellipse 3" cx="3.864" cy="3.864" r="3.864" transform="translate(25.536 51.072)" fill="#fff"/>
  <circle id="Ellipse_4" data-name="Ellipse 4" cx="3.864" cy="3.864" r="3.864" transform="translate(25.536 0)" fill="#fff"/>
  <path id="Path_35" data-name="Path 35" d="M65.043,58.981h5.685a3.864,3.864,0,1,0,0-7.727H65.043L76.457,39.817a3.887,3.887,0,0,0,0-5.485h0a3.887,3.887,0,0,0-5.485,0L59.558,45.746V40.084a3.864,3.864,0,1,0-7.727,0v5.685L40.417,34.355a3.887,3.887,0,0,0-5.485,0h0a3.887,3.887,0,0,0,0,5.485L46.346,51.253H40.684a3.864,3.864,0,1,0,0,7.727h5.685L34.955,70.372a3.887,3.887,0,0,0,0,5.485h0a3.887,3.887,0,0,0,5.485,0L51.853,64.443v5.685a3.864,3.864,0,0,0,7.727,0V64.443L70.994,75.857a3.887,3.887,0,0,0,5.485,0h0a3.887,3.887,0,0,0,0-5.485Zm-9.348,0a3.864,3.864,0,1,1,3.864-3.864A3.867,3.867,0,0,1,55.695,58.981Z" transform="translate(-26.295 -25.828)" fill="#fff"/>
  <circle id="Ellipse_5" data-name="Ellipse 5" cx="3.864" cy="3.864" r="3.864" transform="translate(0 25.536)" fill="#fff"/>
  <circle id="Ellipse_6" data-name="Ellipse 6" cx="3.864" cy="3.864" r="3.864" transform="translate(51.072 25.536)" fill="#fff"/>
  <path id="Path_36" data-name="Path 36" d="M315,89.386a6.527,6.527,0,0,0,1.732-.178,1.237,1.237,0,0,0,.777-.711,5.19,5.19,0,0,0,.222-1.71V71.4h2.531l.022,15.633a6.066,6.066,0,0,1-.577,2.976,2.63,2.63,0,0,1-1.665,1.288,11.932,11.932,0,0,1-3.042.311Z" transform="translate(-245.053 -59.545)" fill="#fff" stroke="#fff" stroke-linecap="round" stroke-width="1"/>
  <path id="Path_37" data-name="Path 37" d="M357.32,88.12a5.548,5.548,0,0,1-2.309-3.02,16.912,16.912,0,0,1-.711-5.374,17.355,17.355,0,0,1,.711-5.4,5.606,5.606,0,0,1,2.309-3.109,9.689,9.689,0,0,1,8.66,0,5.685,5.685,0,0,1,2.309,3.109,17.366,17.366,0,0,1,.711,5.44,16.837,16.837,0,0,1-.688,5.352,5.514,5.514,0,0,1-2.287,3.02,8.242,8.242,0,0,1-4.374.977A8.609,8.609,0,0,1,357.32,88.12Zm7.239-2A3.815,3.815,0,0,0,365.98,83.9a16.913,16.913,0,0,0,.422-4.152,16.57,16.57,0,0,0-.422-4.219,4.245,4.245,0,0,0-1.443-2.354,5.728,5.728,0,0,0-5.685,0,4.026,4.026,0,0,0-1.443,2.332,16.454,16.454,0,0,0-.422,4.219,15.632,15.632,0,0,0,.422,4.108A3.933,3.933,0,0,0,358.83,86.1a4.858,4.858,0,0,0,2.887.755A5.208,5.208,0,0,0,364.559,86.121Z" transform="translate(-275.626 -58.612)" fill="#fff" stroke="#fff" stroke-linecap="round" stroke-width="1"/>
  <path id="Path_38" data-name="Path 38" d="M462.4,68.5h2.443V93.281H462.4Z" transform="translate(-359.722 -57.289)" fill="#fff" stroke="#fff" stroke-linecap="round" stroke-width="1"/>
  <path id="Path_39" data-name="Path 39" d="M522.5,85.456h-7.417l-1.155,4.286H511.4L516.152,71.4h5.285l4.752,18.342h-2.531Zm-6.884-2.265h6.351l-2.487-9.615h-1.377Z" transform="translate(-397.841 -59.545)" fill="#fff" stroke="#fff" stroke-linecap="round" stroke-width="1"/>
  <path id="Path_40" data-name="Path 40" d="M588.565,87.875a5.355,5.355,0,0,1-2.087-3.064A20.079,20.079,0,0,1,585.9,79.5a20.954,20.954,0,0,1,.577-5.44,5.439,5.439,0,0,1,2.065-3.042,7.41,7.41,0,0,1,4.2-1.021,24.449,24.449,0,0,1,5.107.644l-.089,2.11a25.088,25.088,0,0,0-4.53-.444,5.367,5.367,0,0,0-3.02.711,3.533,3.533,0,0,0-1.355,2.287,22.138,22.138,0,0,0-.311,4.552,18.075,18.075,0,0,0,.333,3.975,3.367,3.367,0,0,0,1.354,2.11,5.627,5.627,0,0,0,3.131.711,28.147,28.147,0,0,0,4.4-.444l.089,2.154a25.1,25.1,0,0,1-4.93.577A7.5,7.5,0,0,1,588.565,87.875Z" transform="translate(-455.798 -58.456)" fill="#fff" stroke="#fff" stroke-linecap="round" stroke-width="1"/>
  <path id="Path_41" data-name="Path 41" d="M658.2,85.456h-7.417l-1.155,4.286H647.1L651.852,71.4h5.285l4.752,18.342h-2.531Zm-6.884-2.265h6.351l-2.487-9.615h-1.377Z" transform="translate(-503.409 -59.545)" fill="#fff" stroke="#fff" stroke-linecap="round" stroke-width="1"/>
  <path id="Path_42" data-name="Path 42" d="M737.036,72.532a5.7,5.7,0,0,1,2.11,3,16.286,16.286,0,0,1,.555,4.641,17.827,17.827,0,0,1-.711,5.507,5.806,5.806,0,0,1-2.265,3.087,7.454,7.454,0,0,1-4.108.977H726.2V71.4h6.417A7.427,7.427,0,0,1,737.036,72.532Zm-1,13.19a11.286,11.286,0,0,0,1.044-5.507,13.747,13.747,0,0,0-.444-3.819,3.7,3.7,0,0,0-1.421-2.11,4.58,4.58,0,0,0-2.62-.666h-3.864V87.477H732.6A3.606,3.606,0,0,0,736.037,85.723Z" transform="translate(-564.944 -59.545)" fill="#fff" stroke="#fff" stroke-linecap="round" stroke-width="1"/>
  <path id="Path_43" data-name="Path 43" d="M805.854,73.643V79.35h7.195V81.57h-7.195v5.951h8.793v2.221H803.3V71.4h11.347v2.243Z" transform="translate(-624.924 -59.545)" fill="#fff" stroke="#fff" stroke-linecap="round" stroke-width="1"/>
  <path id="Path_44" data-name="Path 44" d="M887.864,71.4V89.742H885.31V74.176h-.4l-4.774,14.833h-2.709l-4.8-14.833h-.377V89.742H869.7V71.4h4.486L878.8,86.344,883.379,71.4Z" transform="translate(-676.579 -59.545)" fill="#fff" stroke="#fff" stroke-linecap="round" stroke-width="1"/>
  <path id="Path_45" data-name="Path 45" d="M967.973,82.2,962.2,71.5h2.842l4.219,8.172,4.175-8.172h2.887l-5.773,10.7v7.616H968V82.2Z" transform="translate(-748.539 -59.623)" fill="#fff" stroke="#fff" stroke-linecap="round" stroke-width="1"/>
</svg>
