<svg xmlns="http://www.w3.org/2000/svg" width="21.909" height="18.575" viewBox="0 0 21.909 18.575">
  <g id="video-camera" transform="translate(0 0)">
    <g id="Group_1729" data-name="Group 1729">
      <path id="Path_10863" data-name="Path 10863" d="M0,16.787v5.549a2.394,2.394,0,0,0,2.495,2.251H13.868a2.156,2.156,0,0,0,2.218-2.251v-.074l4.188,2.08a.42.42,0,0,0,.215.06,1.441,1.441,0,0,0,1.421-1.513V15.708A1.414,1.414,0,0,0,20.523,14.2a.421.421,0,0,0-.214.059l-4.145,2.092a2.348,2.348,0,0,0-2.195-1.911A4.662,4.662,0,1,0,6.754,9.324,3.53,3.53,0,0,0,.718,11.813a3.465,3.465,0,0,0,1.17,2.682A2.422,2.422,0,0,0,0,16.787ZM20.556,15.32a.385.385,0,0,1,.244.388v7.181a.386.386,0,0,1-.243.389l-4.471-2.259V17.567ZM7.416,13.267a4.342,4.342,0,0,0,1.04,1.057H6.616A3.312,3.312,0,0,0,7.416,13.267Zm.246-2.588a3.577,3.577,0,1,1,.107.85,3.5,3.5,0,0,0-.092-.562C7.67,10.872,7.663,10.776,7.663,10.679ZM4.252,9.39a2.426,2.426,0,0,1,2.325,1.746,4.636,4.636,0,0,0,.092.562c0,.039.006.076.006.115A2.423,2.423,0,1,1,4.252,9.39ZM14.976,22.23a1.247,1.247,0,0,1-1.247,1.247H2.356A1.247,1.247,0,0,1,1.109,22.23V16.681a1.247,1.247,0,0,1,1.247-1.247H13.729a1.247,1.247,0,0,1,1.247,1.247V22.23Z" transform="translate(0 -6.011)" fill="#327bf9"/>
    </g>
  </g>
</svg>
