<svg id="volunteer" xmlns="http://www.w3.org/2000/svg" width="33.953" height="37" viewBox="0 0 33.953 37">
  <path id="Path_12869" data-name="Path 12869" d="M207.759,128.928a.542.542,0,1,0-.319,1.036,3.411,3.411,0,0,1,2.158,3.391.542.542,0,1,0,1.084,0A4.5,4.5,0,0,0,207.759,128.928Zm0,0" transform="translate(-192.094 -119.589)" fill="#535962"/>
  <path id="Path_12870" data-name="Path 12870" d="M209.349,245.438h-.912a.542.542,0,1,0,0,1.084h.912a.542.542,0,0,0,0-1.084Zm0,0" transform="translate(-192.871 -227.701)" fill="#535962"/>
  <path id="Path_12871" data-name="Path 12871" d="M166.618,13.776a1.335,1.335,0,0,0-1.333-1.333h-.348a1.322,1.322,0,0,0-.67.181,1.335,1.335,0,0,0-1.33-1.25h-.348a1.324,1.324,0,0,0-.942.391c-.02.02-.04.041-.058.062a1.33,1.33,0,0,0-1-.453h-.348a1.338,1.338,0,0,0-1.276.948,1.325,1.325,0,0,0-.724-.214h-.348a1.336,1.336,0,0,0-1.333,1.333V19.3A1.8,1.8,0,0,0,156,18.92V17.174a.9.9,0,0,0-.9-.9h-.525V15.223h.23a1.335,1.335,0,0,0,1.333-1.333V2.4a1.335,1.335,0,0,0-1.333-1.333h-.347a1.325,1.325,0,0,0-.67.181A1.335,1.335,0,0,0,152.458,0h-.348a1.324,1.324,0,0,0-.942.391c-.02.02-.04.041-.058.062a1.332,1.332,0,0,0-1-.453h-.348a1.335,1.335,0,0,0-1.276.948,1.325,1.325,0,0,0-.724-.214h-.348a1.334,1.334,0,0,0-1.333,1.333V7.923a1.808,1.808,0,0,0-2.553,2.56l2.553,2.553v.854a1.335,1.335,0,0,0,1.333,1.333h.475v1.048h-.73a.9.9,0,0,0-.9.9v2.209a.9.9,0,0,0,.82.9V36.1a.9.9,0,0,0,.9.9h6.3a.9.9,0,0,0,.9-.9V23.034l1.375,1.375v.854a1.335,1.335,0,0,0,1.333,1.333h.475v9.537a.869.869,0,0,0,.868.868h4.951a.869.869,0,0,0,.868-.868V34.543a.542.542,0,1,0-1.084,0v1.373h-4.518V26.054a.542.542,0,0,0-.542-.542h-1.017a.253.253,0,0,1-.249-.249V24.184a.542.542,0,0,0-.159-.383l-2.712-2.712a.724.724,0,0,1,1.023-1.024l.922.922a.542.542,0,0,0,.925-.383V13.44a.251.251,0,0,1,.249-.249h.348a.252.252,0,0,1,.249.249v5.5a.542.542,0,0,0,.542.542h.419a.542.542,0,0,0,.542-.542v-6.23a.251.251,0,0,1,.249-.249h.347a.252.252,0,0,1,.249.249v6.23a.542.542,0,0,0,.542.542h.419a.542.542,0,0,0,.542-.542v-6.23a.251.251,0,0,1,.249-.249h.348a.251.251,0,0,1,.249.249v6.23a.542.542,0,0,0,.542.542h.419a.542.542,0,0,0,.542-.542V13.776a.252.252,0,0,1,.249-.249h.348a.252.252,0,0,1,.249.249V25.263a.251.251,0,0,1-.249.249h-.773a.542.542,0,0,0-.542.542v5.888a.542.542,0,0,0,1.084,0V26.6h.231a1.335,1.335,0,0,0,1.333-1.333ZM147.34,17.355h3.168a.542.542,0,0,0,0-1.084h-1.535v-1.59a.542.542,0,0,0-.542-.542h-1.017a.252.252,0,0,1-.249-.249V12.811a.542.542,0,0,0-.159-.383l-2.712-2.712a.724.724,0,1,1,1.023-1.023l.922.922a.542.542,0,0,0,.925-.383V2.067a.253.253,0,0,1,.249-.249h.347a.252.252,0,0,1,.249.249v5.5a.542.542,0,0,0,.542.542h.419a.542.542,0,0,0,.542-.542V1.333a.252.252,0,0,1,.249-.249h.347a.252.252,0,0,1,.249.249v6.23a.542.542,0,0,0,.542.542h.418a.542.542,0,0,0,.542-.542V1.333a.252.252,0,0,1,.249-.249h.347a.251.251,0,0,1,.249.249v6.23a.542.542,0,0,0,.542.542h.419a.542.542,0,0,0,.542-.542V2.4a.252.252,0,0,1,.249-.249h.347a.252.252,0,0,1,.249.249V13.89a.252.252,0,0,1-.249.249h-.772a.542.542,0,0,0-.542.542v1.59h-.382a.542.542,0,1,0,0,1.084h1.81v1.453a1.792,1.792,0,0,0-.808.394H147.34ZM154.1,35.916h-5.941V20.287H153.5a1.807,1.807,0,0,0,.5,1.569l.094.094Zm0,0" transform="translate(-132.666)" fill="#535962"/>
  <path id="Path_12872" data-name="Path 12872" d="M352.779,286.31a.542.542,0,0,0-.322,1.035,3.394,3.394,0,0,1,2.161,3.391.542.542,0,0,0,1.084,0A4.5,4.5,0,0,0,352.779,286.31Zm0,0" transform="translate(-326.635 -265.597)" fill="#535962"/>
  <path id="Path_12873" data-name="Path 12873" d="M12.6,246.779a.542.542,0,0,0-.542.542v1.451a.252.252,0,0,1-.249.249h-.772a.542.542,0,0,0-.542.542v4.262H5.974v-4.262a.542.542,0,0,0-.542-.542H4.415a.252.252,0,0,1-.249-.249v-1.079a.542.542,0,0,0-.159-.383L1.295,244.6a.724.724,0,0,1,1.023-1.024l.922.922a.542.542,0,0,0,.925-.383v-7.165a.252.252,0,0,1,.249-.249h.347a.252.252,0,0,1,.249.249v5.5a.542.542,0,0,0,.542.542h.419a.542.542,0,0,0,.542-.542v-6.23a.251.251,0,0,1,.249-.249H7.11a.252.252,0,0,1,.249.249v6.229a.542.542,0,0,0,.542.542H8.32a.542.542,0,0,0,.542-.542v-6.23a.252.252,0,0,1,.249-.249h.347a.251.251,0,0,1,.249.249v6.23a.542.542,0,0,0,.542.542h.419a.542.542,0,0,0,.542-.542v-5.161a.252.252,0,0,1,.249-.249h.348a.252.252,0,0,1,.249.249v7.435a.542.542,0,0,0,1.084,0v-7.435a1.335,1.335,0,0,0-1.333-1.333h-.347a1.321,1.321,0,0,0-.67.181,1.336,1.336,0,0,0-1.331-1.25H9.111a1.324,1.324,0,0,0-.942.391c-.02.02-.04.041-.058.062a1.329,1.329,0,0,0-1-.453H6.762a1.338,1.338,0,0,0-1.276.948,1.325,1.325,0,0,0-.724-.214H4.415a1.336,1.336,0,0,0-1.333,1.333v5.856a1.808,1.808,0,0,0-2.553,2.56l2.553,2.553v.854a1.335,1.335,0,0,0,1.333,1.333H4.89v3.936a.869.869,0,0,0,.868.868h4.951a.869.869,0,0,0,.868-.868v-3.936h.23a1.335,1.335,0,0,0,1.333-1.333v-1.451a.542.542,0,0,0-.542-.542Zm0,0" transform="translate(0 -217.909)" fill="#535962"/>
  <path id="Path_12874" data-name="Path 12874" d="M64.761,363.809a.542.542,0,0,0-.319,1.036,3.41,3.41,0,0,1,2.158,3.39.542.542,0,0,0,1.084,0,4.5,4.5,0,0,0-2.923-4.427Zm0,0" transform="translate(-59.43 -337.495)" fill="#535962"/>
</svg>
