<svg id="whatsapp-logo" xmlns="http://www.w3.org/2000/svg" width="40.563" height="40.563" viewBox="0 0 40.563 40.563">
  <path id="WhatsApp" d="M40.562,19.759a19.946,19.946,0,0,1-29.538,17.3L0,40.562l3.594-10.6a19.551,19.551,0,0,1-2.857-10.2,19.913,19.913,0,0,1,39.825,0ZM20.65,3.147A16.7,16.7,0,0,0,3.908,19.759,16.437,16.437,0,0,0,7.1,29.5l-2.092,6.17,6.434-2.045A16.758,16.758,0,0,0,37.392,19.76,16.7,16.7,0,0,0,20.65,3.147ZM30.705,24.309c-.123-.2-.448-.323-.936-.565s-2.889-1.414-3.335-1.575-.774-.242-1.1.242-1.261,1.575-1.546,1.9-.569.365-1.058.122a13.36,13.36,0,0,1-3.925-2.4,14.6,14.6,0,0,1-2.715-3.354c-.284-.484-.03-.746.214-.987.22-.217.489-.566.732-.848a3.246,3.246,0,0,0,.488-.808.882.882,0,0,0-.041-.849c-.122-.242-1.1-2.625-1.505-3.6s-.813-.808-1.1-.808-.61-.041-.936-.041a1.8,1.8,0,0,0-1.3.606,5.416,5.416,0,0,0-1.708,4.04,9.371,9.371,0,0,0,1.993,5.009c.244.323,3.376,5.372,8.338,7.312S26.23,29,27.125,28.915s2.887-1.171,3.3-2.3A4.038,4.038,0,0,0,30.705,24.309Z" fill="#fff"/>
</svg>
