<svg xmlns="http://www.w3.org/2000/svg" width="33.802" height="40.563" viewBox="0 0 33.802 40.563">
  <g id="youtube-logo" transform="translate(0)">
    <path id="YouTube" d="M36.092,29.67H33.866l.01-1.293a1.05,1.05,0,0,1,1.048-1.045h.142a1.051,1.051,0,0,1,1.051,1.045ZM27.742,26.9a.951.951,0,0,0-1.027.844v6.289a1.048,1.048,0,0,0,2.056,0V27.743A.952.952,0,0,0,27.742,26.9ZM41.3,23.381V35.345a5.4,5.4,0,0,1-5.53,5.218H13.03A5.4,5.4,0,0,1,7.5,35.345V23.381a5.4,5.4,0,0,1,5.53-5.218H35.772A5.4,5.4,0,0,1,41.3,23.381ZM14.547,36.644l0-12.6h2.819V22.175L9.85,22.164V24l2.346.007V36.644ZM23,25.919h-2.35v6.729a11.927,11.927,0,0,1,0,1.632c-.191.522-1.05,1.076-1.385.056a13.392,13.392,0,0,1-.008-1.642l-.009-6.776H16.9l.007,6.669c0,1.022-.023,1.784.008,2.131.057.612.037,1.325.6,1.732,1.057.762,3.084-.114,3.591-1.2l0,1.389,1.887,0V25.919Zm7.519,7.706,0-5.6c0-2.134-1.6-3.413-3.766-1.686l.009-4.164-2.348,0L24.4,36.551l1.931-.028.176-.9C28.97,37.891,30.52,36.34,30.517,33.625Zm7.356-.742-1.762.009c0,.07,0,.151,0,.238v.983a.962.962,0,0,1-.963.955H34.8a.962.962,0,0,1-.964-.955V31.527h4.036V30.008a23.964,23.964,0,0,0-.12-2.854c-.289-2.007-3.107-2.326-4.53-1.3a2.653,2.653,0,0,0-.986,1.327,7.472,7.472,0,0,0-.3,2.368v3.34C31.934,38.442,38.677,37.658,37.873,32.883Zm-9.04-18.13a1.6,1.6,0,0,0,.565.714,1.637,1.637,0,0,0,.962.267,1.5,1.5,0,0,0,.9-.28,2.16,2.16,0,0,0,.659-.843l-.045.922h2.62V4.39H32.432v8.671a.859.859,0,0,1-1.718,0V4.39H28.562V11.9c0,.957.018,1.6.046,1.919A3.23,3.23,0,0,0,28.833,14.752ZM20.893,8.46a9.271,9.271,0,0,1,.266-2.507A2.682,2.682,0,0,1,23.9,3.958a3.25,3.25,0,0,1,1.559.352,2.6,2.6,0,0,1,1.005.914,3.606,3.606,0,0,1,.485,1.16,9.252,9.252,0,0,1,.131,1.824v2.818a15.254,15.254,0,0,1-.122,2.276,3.608,3.608,0,0,1-.516,1.354,2.449,2.449,0,0,1-1.008.927,3.217,3.217,0,0,1-1.421.3,3.948,3.948,0,0,1-1.515-.255,2.079,2.079,0,0,1-.966-.772,3.429,3.429,0,0,1-.492-1.249,12.04,12.04,0,0,1-.146-2.2V8.46Zm2.052,4.426a1.046,1.046,0,1,0,2.082,0V6.954a1.046,1.046,0,1,0-2.082,0ZM15.694,15.88h2.472l0-8.545,2.92-7.32h-2.7L16.833,5.452,15.259,0H12.583L15.69,7.339Z" transform="translate(-7.5)" fill="#fff"/>
  </g>
</svg>
