<svg xmlns="http://www.w3.org/2000/svg" width="10.389" height="19.215" viewBox="0 0 10.389 19.215">
  <defs>
    <style>
      .cls-1 {
        fill: #cbcbcb;
      }
    </style>
  </defs>
  <path id="Path_12737" data-name="Path 12737" class="cls-1" d="M32.075,0,29.583,0a4.376,4.376,0,0,0-4.609,4.729v2.18H22.469a.392.392,0,0,0-.392.392V10.46a.392.392,0,0,0,.392.392h2.505v7.971a.392.392,0,0,0,.392.392h3.269a.392.392,0,0,0,.392-.392V10.852h2.929a.392.392,0,0,0,.392-.392V7.3a.392.392,0,0,0-.392-.392h-2.93V5.061c0-.888.212-1.339,1.369-1.339h1.679a.392.392,0,0,0,.392-.392V.4A.392.392,0,0,0,32.075,0Z" transform="translate(-22.077)"/>
</svg>
