<svg xmlns="http://www.w3.org/2000/svg" width="20.584" height="10.292" viewBox="0 0 20.584 10.292">
  <defs>
    <style>
      .cls-1 {
        fill: #cbcbcb;
      }
    </style>
  </defs>
  <path id="Path_12735" data-name="Path 12735" class="cls-1" d="M1.976,59.805q.391.276,2.355,1.637t3.01,2.1q.115.081.488.35t.62.437q.247.166.6.373a3.466,3.466,0,0,0,.661.31,1.82,1.82,0,0,0,.574.1H10.3a1.822,1.822,0,0,0,.574-.1,3.47,3.47,0,0,0,.66-.31q.35-.207.6-.373t.62-.437q.373-.27.488-.35l5.376-3.733a5.457,5.457,0,0,0,1.4-1.413,3.034,3.034,0,0,0,.563-1.734,1.853,1.853,0,0,0-1.838-1.838H1.838a1.64,1.64,0,0,0-1.361.6A2.319,2.319,0,0,0,0,56.911a2.683,2.683,0,0,0,.632,1.568A5.7,5.7,0,0,0,1.976,59.805Z" transform="translate(0 -54.82)"/>
</svg>
