<svg xmlns="http://www.w3.org/2000/svg" width="18.608" height="18.26" viewBox="0 0 18.608 18.26">
  <defs>
    <style>
      .cls-1 {
        fill: #57bc4f;
      }
    </style>
  </defs>
  <path id="whatsapp" class="cls-1" d="M9.3,0A9.254,9.254,0,0,0,0,9.13a8.941,8.941,0,0,0,1.317,4.676L0,18.26l4.539-1.292A9.375,9.375,0,0,0,9.3,18.26a9.254,9.254,0,0,0,9.3-9.13A9.254,9.254,0,0,0,9.3,0Zm5.817,12.988-.433.425c-.612.6-2.021.553-2.926.382C8.753,13.224,5.244,9.887,4.568,7A3.69,3.69,0,0,1,4.9,3.846l.433-.425a.621.621,0,0,1,.866,0l1.732,1.7a.593.593,0,0,1,0,.849L7.5,6.395a1.188,1.188,0,0,0,0,1.7l2.86,2.769a1.24,1.24,0,0,0,1.732,0l.433-.425a.649.649,0,0,1,.866,0l1.731,1.7a.592.592,0,0,1,0,.85Zm0,0"/>
</svg>
