<svg xmlns="http://www.w3.org/2000/svg" width="38.25" height="39.678" viewBox="0 0 38.25 39.678">
  <g id="event" transform="translate(-7.804 0)">
    <g id="Group_8073" data-name="Group 8073" transform="translate(7.804)">
      <g id="Group_8072" data-name="Group 8072" transform="translate(0)">
        <path id="Path_26426" data-name="Path 26426" d="M42.661,4.3q-.122,0-.243,0h-3.06V1.673A1.858,1.858,0,0,0,37.3,0h-2.82a1.646,1.646,0,0,0-1.817,1.673V4.3H21.192V1.673A1.646,1.646,0,0,0,19.376,0H16.555A1.858,1.858,0,0,0,14.5,1.673V4.3H11.44A3.538,3.538,0,0,0,7.805,7.74q0,.122,0,.243V35.615a3.89,3.89,0,0,0,3.633,4.063H42.418a3.89,3.89,0,0,0,3.633-4.063V7.983A3.538,3.538,0,0,0,42.661,4.3ZM34.482,1.912h2.964V7.171H34.482Zm-17.927,0H19.28V7.171H16.555V1.912Zm27.583,33.7a1.986,1.986,0,0,1-1.721,2.151H11.44a1.986,1.986,0,0,1-1.721-2.151V15.3h34.42V35.615Zm0-27.631v5.4H9.719v-5.4A1.625,1.625,0,0,1,11.44,6.215H14.5V7.266a1.967,1.967,0,0,0,2.056,1.817h2.821a1.769,1.769,0,0,0,1.817-1.72q0-.048,0-.1V6.215H32.665V7.266a1.769,1.769,0,0,0,1.72,1.817H37.3a1.967,1.967,0,0,0,2.056-1.817V6.215h3.06a1.626,1.626,0,0,1,1.721,1.769Z" transform="translate(-7.804)" fill="#034173"/>
        <path id="Path_26427" data-name="Path 26427" d="M121.4,204.78l-.86,4.781a.956.956,0,0,0,1.386,1l4.3-2.247,4.3,2.247.43.1a.908.908,0,0,0,.574-.191.956.956,0,0,0,.382-.908l-.86-4.781,3.49-3.346a1.051,1.051,0,0,0,.239-1,1,1,0,0,0-.765-.621l-4.781-.717-2.151-4.35a.956.956,0,0,0-1.721,0l-2.151,4.35-4.781.717a1,1,0,0,0-.765.621,1.052,1.052,0,0,0,.239,1Zm2.629-3.872a.86.86,0,0,0,.669-.526l1.53-3.06,1.53,3.06a.86.86,0,0,0,.669.526l3.394.478-2.438,2.342a1,1,0,0,0-.287.861l.574,3.394-3.012-1.625-.43-.1-.43.1-3.012,1.625.574-3.394a1,1,0,0,0-.287-.861l-2.438-2.342Z" transform="translate(-107.579 -176.431)" fill="#034173"/>
      </g>
    </g>
  </g>
</svg>
