<svg xmlns="http://www.w3.org/2000/svg" width="28" height="38.182" viewBox="0 0 28 38.182">
  <g id="innovation" transform="translate(-64 -4.14)">
    <g id="Group_8119" data-name="Group 8119" transform="translate(64 4.141)">
      <g id="Group_8118" data-name="Group 8118">
        <path id="Path_26464" data-name="Path 26464" d="M91.889,20.657a1.9,1.9,0,0,0-3.59.007H84.363V18.118h2.545a.636.636,0,0,0,.636-.636h0V14.819a1.909,1.909,0,1,0-1.273,0v2.026H84.363V15.573a.636.636,0,0,0-.636-.636H82.454v-3.3a1.909,1.909,0,1,0-1.273,0v3.3H78.636V4.777A.636.636,0,0,0,78,4.141h0c-7.85,0-14,5.684-14,12.939a26.284,26.284,0,0,0,3.571,11.908c.4.7.912,1.436,1.458,2.215,1.155,1.646,2.44,3.5,2.58,5.11a1.809,1.809,0,0,0-.764,1.51A1.89,1.89,0,0,0,71.266,39a1.962,1.962,0,0,0-.584,1.409,1.911,1.911,0,0,0,1.909,1.909H83.409a1.921,1.921,0,0,0,1.909-1.933v-.021A1.9,1.9,0,0,0,84.732,39a1.965,1.965,0,0,0,.423-1.219,1.825,1.825,0,0,0-1.828-1.821l-.081,0h-4.61V23.845h1.273v1.909a.636.636,0,0,0,.636.636h1.909v.754a1.909,1.909,0,1,0,1.273,0v-1.39a.636.636,0,0,0-.636-.636H81.182V23.845h2.545a.636.636,0,0,0,.636-.636h0V21.936H88.3a1.906,1.906,0,0,0,3.59-1.279Zm-4.98-8.266a.636.636,0,1,1-.636.636A.636.636,0,0,1,86.909,12.391ZM70.071,30.472c-.528-.753-1.027-1.464-1.392-2.11A25.333,25.333,0,0,1,65.273,17.08c0-6.346,5.261-11.359,12.091-11.653V9.873c-.169.013-.341.028-.526.051a.636.636,0,0,0-.546.5l-.194.922q-.24.057-.478.129l-.634-.707a.635.635,0,0,0-.723-.161,9.576,9.576,0,0,0-2,1.169.636.636,0,0,0-.222.707l.292.89c-.12.113-.237.231-.351.35l-.889-.292a.64.64,0,0,0-.707.221,9.551,9.551,0,0,0-1.17,2,.636.636,0,0,0,.161.723l.708.634q-.071.236-.128.473l-.99.2a.636.636,0,0,0-.512.624v2.17a.636.636,0,0,0,.512.624l.99.2q.056.237.128.473l-.708.634a.637.637,0,0,0-.161.723,9.556,9.556,0,0,0,1.17,2,.639.639,0,0,0,.707.221l.889-.292c.114.12.231.237.351.35l-.292.889a.637.637,0,0,0,.221.707,9.553,9.553,0,0,0,2,1.17.637.637,0,0,0,.723-.161l.634-.707q.238.072.478.129l.194.922a.636.636,0,0,0,.546.5c.185.023.357.038.526.051v7.049H72.854C72.594,34.083,71.266,32.175,70.071,30.472Zm2.2-11.081a5.734,5.734,0,0,0,5.091,5.69v2.188l-.105-.5a.636.636,0,0,0-.51-.5,6.9,6.9,0,0,1-1.109-.3.647.647,0,0,0-.215-.037.636.636,0,0,0-.474.212l-.6.667a8.251,8.251,0,0,1-.958-.562l.276-.841a.637.637,0,0,0-.194-.685,6.965,6.965,0,0,1-.814-.814.64.64,0,0,0-.684-.193l-.84.277a8.255,8.255,0,0,1-.563-.958l.668-.6a.638.638,0,0,0,.174-.689,6.932,6.932,0,0,1-.3-1.109.636.636,0,0,0-.5-.511l-.89-.178V18.828l.89-.178a.636.636,0,0,0,.5-.511,6.948,6.948,0,0,1,.3-1.109.637.637,0,0,0-.175-.689l-.667-.6a8.361,8.361,0,0,1,.562-.958l.841.277a.64.64,0,0,0,.684-.193,7.119,7.119,0,0,1,.815-.816.636.636,0,0,0,.193-.683l-.276-.841a8.3,8.3,0,0,1,.958-.562l.6.667a.639.639,0,0,0,.689.175,6.879,6.879,0,0,1,1.109-.3.636.636,0,0,0,.51-.5l.105-.5V13.7A5.734,5.734,0,0,0,72.273,19.391Zm5.091-4.4v8.807a4.449,4.449,0,0,1,0-8.807Zm6.682,25.426a.637.637,0,0,1-.636.636H72.591a.648.648,0,0,1-.637-.659q0-.011,0-.022a.637.637,0,0,1,.636-.636H83.409a.648.648,0,0,1,.637.659Q84.046,40.4,84.045,40.413Zm-.8-3.182a.583.583,0,0,1,.636.592.637.637,0,0,1-.636.636H72.754a.648.648,0,0,1-.637-.659q0-.011,0-.022a.575.575,0,0,1,.6-.55l.037,0H83.246ZM83.091,28.3a.636.636,0,1,1-.636.636A.636.636,0,0,1,83.091,28.3ZM81.818,9.209a.636.636,0,1,1-.636.636A.636.636,0,0,1,81.818,9.209Zm1.273,13.363H78.636V16.209h4.454Zm7-.636a.636.636,0,1,1,.636-.636A.636.636,0,0,1,90.09,21.936Z" transform="translate(-64 -4.141)" fill="#034173"/>
      </g>
    </g>
    <g id="Group_8121" data-name="Group 8121" transform="translate(83.542 33.229)">
      <g id="Group_8120" data-name="Group 8120">
        <path id="Path_26465" data-name="Path 26465" d="M310.274,369.828a10.789,10.789,0,0,0-.594,1.243l1.183.469a9.527,9.527,0,0,1,.525-1.1Z" transform="translate(-309.68 -369.828)" fill="#034173"/>
      </g>
    </g>
    <g id="Group_8123" data-name="Group 8123" transform="translate(84.83 30.988)">
      <g id="Group_8122" data-name="Group 8122">
        <path id="Path_26466" data-name="Path 26466" d="M326.605,341.648c-.25.359-.5.725-.738,1.094l1.068.691c.231-.357.473-.71.715-1.058Z" transform="translate(-325.867 -341.648)" fill="#034173"/>
      </g>
    </g>
    <g id="Group_8125" data-name="Group 8125" transform="translate(86.311 28.87)">
      <g id="Group_8124" data-name="Group 8124" transform="translate(0)">
        <path id="Path_26467" data-name="Path 26467" d="M345.194,315.031c-.215.341-.454.693-.7,1.055l1.045.726c.263-.378.512-.746.736-1.1Z" transform="translate(-344.489 -315.031)" fill="#034173"/>
      </g>
    </g>
    <g id="Group_8127" data-name="Group 8127" transform="translate(87.638 26.653)">
      <g id="Group_8126" data-name="Group 8126">
        <path id="Path_26468" data-name="Path 26468" d="M361.74,287.148q-.274.572-.572,1.132l1.122.6q.312-.584.6-1.184Z" transform="translate(-361.168 -287.148)" fill="#034173"/>
      </g>
    </g>
    <g id="Group_8129" data-name="Group 8129" transform="translate(88.732 24.317)">
      <g id="Group_8128" data-name="Group 8128">
        <path id="Path_26469" data-name="Path 26469" d="M375.393,257.789c-.148.393-.305.787-.472,1.178l1.171.5q.26-.612.492-1.229Z" transform="translate(-374.921 -257.789)" fill="#034173"/>
      </g>
    </g>
    <g id="Group_8131" data-name="Group 8131" transform="translate(90.677 16.953)">
      <g id="Group_8130" data-name="Group 8130">
        <path id="Path_26470" data-name="Path 26470" d="M400.7,165.211l-1.273.01v.117c0,.355-.016.732-.049,1.12l1.268.107c.036-.423.054-.836.054-1.227Z" transform="translate(-399.379 -165.211)" fill="#034173"/>
      </g>
    </g>
    <g id="Group_8133" data-name="Group 8133" transform="translate(90.436 14.244)">
      <g id="Group_8132" data-name="Group 8132" transform="translate(0)">
        <path id="Path_26471" data-name="Path 26471" d="M397.579,131.156l-1.239.29a11.005,11.005,0,0,1,.212,1.206l1.264-.15A12.33,12.33,0,0,0,397.579,131.156Z" transform="translate(-396.34 -131.156)" fill="#034173"/>
      </g>
    </g>
    <g id="Group_8135" data-name="Group 8135" transform="translate(89.616 11.673)">
      <g id="Group_8134" data-name="Group 8134" transform="translate(0 0)">
        <path id="Path_26472" data-name="Path 26472" d="M387.179,98.828l-1.144.557a11.137,11.137,0,0,1,.475,1.13l1.2-.426A12.257,12.257,0,0,0,387.179,98.828Z" transform="translate(-386.035 -98.828)" fill="#034173"/>
      </g>
    </g>
    <g id="Group_8137" data-name="Group 8137" transform="translate(88.308 9.368)">
      <g id="Group_8136" data-name="Group 8136" transform="translate(0)">
        <path id="Path_26473" data-name="Path 26473" d="M370.583,69.859l-1,.792a11.574,11.574,0,0,1,.712,1l1.076-.68A12.838,12.838,0,0,0,370.583,69.859Z" transform="translate(-369.586 -69.859)" fill="#034173"/>
      </g>
    </g>
    <g id="Group_8139" data-name="Group 8139" transform="translate(86.586 7.426)">
      <g id="Group_8138" data-name="Group 8138" transform="translate(0)">
        <path id="Path_26474" data-name="Path 26474" d="M348.757,45.445l-.811.981a12.022,12.022,0,0,1,.907.832l.907-.892A13.35,13.35,0,0,0,348.757,45.445Z" transform="translate(-347.946 -45.445)" fill="#034173"/>
      </g>
    </g>
    <g id="Group_8141" data-name="Group 8141" transform="translate(84.54 5.91)">
      <g id="Group_8140" data-name="Group 8140" transform="translate(0)">
        <path id="Path_26475" data-name="Path 26475" d="M322.832,26.375l-.605,1.12c.364.2.719.411,1.057.639l.71-1.056C323.623,26.827,323.232,26.591,322.832,26.375Z" transform="translate(-322.227 -26.375)" fill="#034173"/>
      </g>
    </g>
    <g id="Group_8143" data-name="Group 8143" transform="translate(82.266 4.854)">
      <g id="Group_8142" data-name="Group 8142" transform="translate(0 0)">
        <path id="Path_26476" data-name="Path 26476" d="M294.018,13.1l-.385,1.213c.4.126.786.27,1.16.428l.5-1.171C294.881,13.4,294.452,13.24,294.018,13.1Z" transform="translate(-293.633 -13.102)" fill="#034173"/>
      </g>
    </g>
    <g id="Group_8145" data-name="Group 8145" transform="translate(79.848 4.27)">
      <g id="Group_8144" data-name="Group 8144" transform="translate(0)">
        <path id="Path_26477" data-name="Path 26477" d="M263.4,5.758l-.163,1.263c.41.053.821.124,1.221.213l.275-1.243C264.3,5.895,263.849,5.816,263.4,5.758Z" transform="translate(-263.238 -5.758)" fill="#034173"/>
      </g>
    </g>
  </g>
</svg>
