<svg xmlns="http://www.w3.org/2000/svg" width="39.666" height="39.666" viewBox="0 0 39.666 39.666">
  <g id="research" transform="translate(-0.001 0)">
    <g id="Group_8055" data-name="Group 8055" transform="translate(0.001)">
      <g id="Group_8054" data-name="Group 8054" transform="translate(0)">
        <path id="Path_26421" data-name="Path 26421" d="M30.577,0H2.48A2.479,2.479,0,0,0,0,2.479V22.312A2.479,2.479,0,0,0,2.48,24.791H13.223V23.139H2.48a.826.826,0,0,1-.826-.826V2.479a.826.826,0,0,1,.826-.826h28.1a.826.826,0,0,1,.826.826V17.354h1.653V2.479A2.479,2.479,0,0,0,30.577,0Z" transform="translate(-0.001)" fill="#034173"/>
      </g>
    </g>
    <g id="Group_8057" data-name="Group 8057" transform="translate(9.918 23.965)">
      <g id="Group_8056" data-name="Group 8056">
        <rect id="Rectangle_6536" data-name="Rectangle 6536" width="1.653" height="4.958" fill="#034173"/>
      </g>
    </g>
    <g id="Group_8059" data-name="Group 8059" transform="translate(3.307 17.354)">
      <g id="Group_8058" data-name="Group 8058">
        <path id="Path_26422" data-name="Path 26422" d="M45.147,226.479a.826.826,0,0,1-.826-.826V224H42.668v1.653a2.479,2.479,0,0,0,2.479,2.479H46.8v-1.653Z" transform="translate(-42.668 -224)" fill="#034173"/>
      </g>
    </g>
    <g id="Group_8061" data-name="Group 8061" transform="translate(3.307 14.048)">
      <g id="Group_8060" data-name="Group 8060">
        <rect id="Rectangle_6537" data-name="Rectangle 6537" width="1.653" height="1.653" fill="#034173"/>
      </g>
    </g>
    <g id="Group_8063" data-name="Group 8063" transform="translate(14.875 14.874)">
      <g id="Group_8062" data-name="Group 8062">
        <path id="Path_26423" data-name="Path 26423" d="M207.314,194.619a8.979,8.979,0,1,0,0,12.7A8.979,8.979,0,0,0,207.314,194.619Zm-6.354,13.675a7.326,7.326,0,1,1,7.328-7.323A7.326,7.326,0,0,1,200.96,208.294Z" transform="translate(-191.986 -191.989)" fill="#034173"/>
      </g>
    </g>
    <g id="Group_8065" data-name="Group 8065" transform="translate(30.522 30.52)">
      <g id="Group_8064" data-name="Group 8064">
        <path id="Path_26424" data-name="Path 26424" d="M402.859,399.37l-5.187-5.185a.826.826,0,0,0-1.168,0L394.2,396.49a.826.826,0,0,0,0,1.169l5.187,5.188a.826.826,0,0,0,.584.242h0a.827.827,0,0,0,.584-.245l2.306-2.306A.826.826,0,0,0,402.859,399.37Zm-2.89,1.724-4.019-4.02,1.137-1.137,4.019,4.02Z" transform="translate(-393.956 -393.942)" fill="#034173"/>
      </g>
    </g>
    <g id="Group_8067" data-name="Group 8067" transform="translate(29.034 29.033)">
      <g id="Group_8066" data-name="Group 8066" transform="translate(0)">
        <rect id="Rectangle_6538" data-name="Rectangle 6538" width="1.653" height="4.076" transform="translate(0 1.169) rotate(-45)" fill="#034173"/>
      </g>
    </g>
    <g id="Group_8069" data-name="Group 8069" transform="translate(23.966 18.18)">
      <g id="Group_8068" data-name="Group 8068">
        <path id="Path_26425" data-name="Path 26425" d="M309.334,234.667v1.653a4.137,4.137,0,0,1,4.132,4.132h1.653A5.791,5.791,0,0,0,309.334,234.667Z" transform="translate(-309.334 -234.667)" fill="#034173"/>
      </g>
    </g>
    <g id="Group_8071" data-name="Group 8071" transform="translate(8.265 28.097)">
      <g id="Group_8070" data-name="Group 8070">
        <rect id="Rectangle_6539" data-name="Rectangle 6539" width="6.611" height="1.653" fill="#034173"/>
      </g>
    </g>
  </g>
</svg>
