<svg xmlns="http://www.w3.org/2000/svg" width="38.25" height="30.848" viewBox="0 0 38.25 30.848">
  <g id="video-lecture" transform="translate(0 0)">
    <path id="Path_26443" data-name="Path 26443" d="M36.4,0H1.851A1.853,1.853,0,0,0,0,1.851V29a1.853,1.853,0,0,0,1.851,1.851H36.4A1.853,1.853,0,0,0,38.25,29V1.851A1.853,1.853,0,0,0,36.4,0Zm.617,29a.618.618,0,0,1-.617.617H1.851A.618.618,0,0,1,1.234,29V1.851a.618.618,0,0,1,.617-.617H36.4a.618.618,0,0,1,.617.617Zm0,0" fill="#034173"/>
    <path id="Path_26444" data-name="Path 26444" d="M78.847,32H48V50.508H78.847ZM77.613,49.274H49.234V33.234H77.613Zm0,0" transform="translate(-44.298 -29.532)" fill="#034173"/>
    <path id="Path_26445" data-name="Path 26445" d="M180.339,74.516A3.1,3.1,0,0,0,178.1,71.55l-2.082-.594v-.164a3.088,3.088,0,0,0,1.234-2.455V67.231a3.174,3.174,0,0,0-2.811-3.2,3.085,3.085,0,0,0-3.359,3.072v1.234a3.087,3.087,0,0,0,1.234,2.455v.164l-2.082.595A3.1,3.1,0,0,0,168,74.516V77.59h12.339Zm-1.234,1.84h-9.871v-1.84a1.859,1.859,0,0,1,1.342-1.78l2.976-.85V70.107l-.307-.178a1.831,1.831,0,0,1-.927-1.592V67.1a1.856,1.856,0,0,1,.6-1.365,1.823,1.823,0,0,1,1.418-.479,1.933,1.933,0,0,1,1.683,1.972v1.106a1.831,1.831,0,0,1-.927,1.592l-.307.178v1.779l2.976.85a1.86,1.86,0,0,1,1.342,1.78Zm0,0" transform="translate(-155.044 -59.082)" fill="#034173"/>
    <path id="Path_26446" data-name="Path 26446" d="M32,296.753l5.7-2.849L32,291.054Zm1.234-3.7,1.705.853-1.705.853Zm0,0" transform="translate(-29.532 -268.609)" fill="#034173"/>
    <path id="Path_26447" data-name="Path 26447" d="M152,288h1.234v6.169H152Zm0,0" transform="translate(-140.278 -265.79)" fill="#034173"/>
    <path id="Path_26448" data-name="Path 26448" d="M120,288h1.234v6.169H120Zm0,0" transform="translate(-110.746 -265.79)" fill="#034173"/>
    <path id="Path_26449" data-name="Path 26449" d="M195.722,288h-3.7v2.468H184V291.7h8.02v2.468h3.7V291.7h9.871v-1.234h-9.871Zm-1.234,4.935h-1.234v-3.7h1.234Zm0,0" transform="translate(-169.81 -265.79)" fill="#034173"/>
  </g>
</svg>
